<svg width="18" height="18" viewBox="0 0 18 18" fill="none" xmlns="http://www.w3.org/2000/svg">
<path d="M13.2143 2.5C13.2143 2.22386 12.9904 2 12.7143 2C12.4381 2 12.2143 2.22386 12.2143 2.5H13.2143ZM12.2143 5.28571C12.2143 5.56186 12.4381 5.78571 12.7143 5.78571C12.9904 5.78571 13.2143 5.56186 13.2143 5.28571H12.2143ZM5.78571 2.5C5.78571 2.22386 5.56186 2 5.28571 2C5.00957 2 4.78571 2.22386 4.78571 2.5H5.78571ZM4.78571 5.28571C4.78571 5.56186 5.00957 5.78571 5.28571 5.78571C5.56186 5.78571 5.78571 5.56186 5.78571 5.28571H4.78571ZM3.08579 14.9142L3.43934 14.5606L3.08579 14.9142ZM14.9142 14.9142L15.2678 15.2677L14.9142 14.9142ZM14.9142 4.47864L15.2678 4.12509L14.9142 4.47864ZM3.08579 4.47864L2.73223 4.12509L3.08579 4.47864ZM15 7.89286V11.5H16V7.89286H15ZM11.5 15H6.5V16H11.5V15ZM3 11.5V7.89286H2V11.5H3ZM6.50063 4.39286C6.50398 4.39286 6.50734 4.39286 6.5107 4.39286C6.51405 4.39286 6.51741 4.39286 6.52076 4.39286C6.52412 4.39286 6.52747 4.39286 6.53083 4.39286C6.53418 4.39286 6.53753 4.39286 6.54089 4.39286C6.54424 4.39286 6.54759 4.39286 6.55094 4.39286C6.55429 4.39286 6.55765 4.39286 6.561 4.39286C6.56435 4.39286 6.5677 4.39286 6.57104 4.39286C6.57439 4.39286 6.57774 4.39286 6.58109 4.39286C6.58444 4.39286 6.58779 4.39286 6.59113 4.39286C6.59448 4.39286 6.59782 4.39286 6.60117 4.39286C6.60452 4.39286 6.60786 4.39286 6.61121 4.39286C6.61455 4.39286 6.61789 4.39286 6.62124 4.39286C6.62458 4.39286 6.62792 4.39286 6.63126 4.39286C6.63461 4.39286 6.63795 4.39286 6.64129 4.39286C6.64463 4.39286 6.64797 4.39286 6.65131 4.39286C6.65465 4.39286 6.65799 4.39286 6.66133 4.39286C6.66467 4.39286 6.66801 4.39286 6.67134 4.39286C6.67468 4.39286 6.67802 4.39286 6.68135 4.39286C6.68469 4.39286 6.68803 4.39286 6.69136 4.39286C6.6947 4.39286 6.69803 4.39286 6.70137 4.39286C6.7047 4.39286 6.70803 4.39286 6.71137 4.39286C6.7147 4.39286 6.71803 4.39286 6.72136 4.39286C6.7247 4.39286 6.72803 4.39286 6.73136 4.39286C6.73469 4.39286 6.73802 4.39286 6.74135 4.39286C6.74468 4.39286 6.74801 4.39286 6.75134 4.39286C6.75467 4.39286 6.75799 4.39286 6.76132 4.39286C6.76465 4.39286 6.76798 4.39286 6.7713 4.39286C6.77463 4.39286 6.77795 4.39286 6.78128 4.39286C6.78461 4.39286 6.78793 4.39286 6.79126 4.39286C6.79458 4.39286 6.7979 4.39286 6.80123 4.39286C6.80455 4.39286 6.80787 4.39286 6.81119 4.39286C6.81452 4.39286 6.81784 4.39286 6.82116 4.39286C6.82448 4.39286 6.8278 4.39286 6.83112 4.39286C6.83444 4.39286 6.83776 4.39286 6.84108 4.39286C6.8444 4.39286 6.84772 4.39286 6.85104 4.39286C6.85435 4.39286 6.85767 4.39286 6.86099 4.39286C6.86431 4.39286 6.86762 4.39286 6.87094 4.39286C6.87425 4.39286 6.87757 4.39286 6.88088 4.39286C6.8842 4.39286 6.88751 4.39286 6.89083 4.39286C6.89414 4.39286 6.89746 4.39286 6.90077 4.39286C6.90408 4.39286 6.90739 4.39286 6.91071 4.39286C6.91402 4.39286 6.91733 4.39286 6.92064 4.39286C6.92395 4.39286 6.92726 4.39286 6.93057 4.39286C6.93388 4.39286 6.93719 4.39286 6.9405 4.39286C6.94381 4.39286 6.94712 4.39286 6.95042 4.39286C6.95373 4.39286 6.95704 4.39286 6.96035 4.39286C6.96365 4.39286 6.96696 4.39286 6.97026 4.39286C6.97357 4.39286 6.97688 4.39286 6.98018 4.39286C6.98349 4.39286 6.98679 4.39286 6.99009 4.39286C6.9934 4.39286 6.9967 4.39286 7 4.39286C7.00331 4.39286 7.00661 4.39286 7.00991 4.39286C7.01321 4.39286 7.01651 4.39286 7.01982 4.39286C7.02312 4.39286 7.02642 4.39286 7.02972 4.39286C7.03302 4.39286 7.03632 4.39286 7.03962 4.39286C7.04292 4.39286 7.04621 4.39286 7.04951 4.39286C7.05281 4.39286 7.05611 4.39286 7.05941 4.39286C7.0627 4.39286 7.066 4.39286 7.0693 4.39286C7.07259 4.39286 7.07589 4.39286 7.07918 4.39286C7.08248 4.39286 7.08577 4.39286 7.08907 4.39286C7.09236 4.39286 7.09566 4.39286 7.09895 4.39286C7.10224 4.39286 7.10554 4.39286 7.10883 4.39286C7.11212 4.39286 7.11541 4.39286 7.1187 4.39286C7.122 4.39286 7.12529 4.39286 7.12858 4.39286C7.13187 4.39286 7.13516 4.39286 7.13845 4.39286C7.14174 4.39286 7.14503 4.39286 7.14832 4.39286C7.15161 4.39286 7.15489 4.39286 7.15818 4.39286C7.16147 4.39286 7.16476 4.39286 7.16804 4.39286C7.17133 4.39286 7.17462 4.39286 7.1779 4.39286C7.18119 4.39286 7.18448 4.39286 7.18776 4.39286C7.19105 4.39286 7.19433 4.39286 7.19762 4.39286C7.2009 4.39286 7.20418 4.39286 7.20747 4.39286C7.21075 4.39286 7.21404 4.39286 7.21732 4.39286C7.2206 4.39286 7.22388 4.39286 7.22716 4.39286C7.23045 4.39286 7.23373 4.39286 7.23701 4.39286C7.24029 4.39286 7.24357 4.39286 7.24685 4.39286C7.25013 4.39286 7.25341 4.39286 7.25669 4.39286C7.25997 4.39286 7.26325 4.39286 7.26653 4.39286C7.2698 4.39286 7.27308 4.39286 7.27636 4.39286C7.27964 4.39286 7.28291 4.39286 7.28619 4.39286C7.28947 4.39286 7.29274 4.39286 7.29602 4.39286C7.2993 4.39286 7.30257 4.39286 7.30585 4.39286C7.30912 4.39286 7.3124 4.39286 7.31567 4.39286C7.31895 4.39286 7.32222 4.39286 7.32549 4.39286C7.32877 4.39286 7.33204 4.39286 7.33531 4.39286C7.33858 4.39286 7.34186 4.39286 7.34513 4.39286C7.3484 4.39286 7.35167 4.39286 7.35494 4.39286C7.35821 4.39286 7.36148 4.39286 7.36475 4.39286C7.36802 4.39286 7.37129 4.39286 7.37456 4.39286C7.37783 4.39286 7.3811 4.39286 7.38437 4.39286C7.38764 4.39286 7.39091 4.39286 7.39418 4.39286C7.39744 4.39286 7.40071 4.39286 7.40398 4.39286C7.40725 4.39286 7.41051 4.39286 7.41378 4.39286C7.41704 4.39286 7.42031 4.39286 7.42358 4.39286C7.42684 4.39286 7.43011 4.39286 7.43337 4.39286C7.43664 4.39286 7.4399 4.39286 7.44316 4.39286C7.44643 4.39286 7.44969 4.39286 7.45296 4.39286C7.45622 4.39286 7.45948 4.39286 7.46274 4.39286C7.46601 4.39286 7.46927 4.39286 7.47253 4.39286C7.47579 4.39286 7.47905 4.39286 7.48231 4.39286C7.48558 4.39286 7.48884 4.39286 7.4921 4.39286C7.49536 4.39286 7.49862 4.39286 7.50188 4.39286C7.50514 4.39286 7.50839 4.39286 7.51165 4.39286C7.51491 4.39286 7.51817 4.39286 7.52143 4.39286C7.52469 4.39286 7.52794 4.39286 7.5312 4.39286C7.53446 4.39286 7.53772 4.39286 7.54097 4.39286C7.54423 4.39286 7.54749 4.39286 7.55074 4.39286C7.554 4.39286 7.55725 4.39286 7.56051 4.39286C7.56376 4.39286 7.56702 4.39286 7.57027 4.39286C7.57353 4.39286 7.57678 4.39286 7.58004 4.39286C7.58329 4.39286 7.58654 4.39286 7.5898 4.39286C7.59305 4.39286 7.5963 4.39286 7.59955 4.39286C7.60281 4.39286 7.60606 4.39286 7.60931 4.39286C7.61256 4.39286 7.61581 4.39286 7.61907 4.39286C7.62232 4.39286 7.62557 4.39286 7.62882 4.39286C7.63207 4.39286 7.63532 4.39286 7.63857 4.39286C7.64182 4.39286 7.64507 4.39286 7.64832 4.39286C7.65157 4.39286 7.65481 4.39286 7.65806 4.39286C7.66131 4.39286 7.66456 4.39286 7.66781 4.39286C7.67105 4.39286 7.6743 4.39286 7.67755 4.39286C7.6808 4.39286 7.68404 4.39286 7.68729 4.39286C7.69054 4.39286 7.69378 4.39286 7.69703 4.39286C7.70027 4.39286 7.70352 4.39286 7.70676 4.39286C7.71001 4.39286 7.71326 4.39286 7.7165 4.39286C7.71974 4.39286 7.72299 4.39286 7.72623 4.39286C7.72948 4.39286 7.73272 4.39286 7.73596 4.39286C7.73921 4.39286 7.74245 4.39286 7.74569 4.39286C7.74894 4.39286 7.75218 4.39286 7.75542 4.39286C7.75866 4.39286 7.7619 4.39286 7.76515 4.39286C7.76839 4.39286 7.77163 4.39286 7.77487 4.39286C7.77811 4.39286 7.78135 4.39286 7.78459 4.39286C7.78783 4.39286 7.79107 4.39286 7.79431 4.39286C7.79755 4.39286 7.80079 4.39286 7.80403 4.39286C7.80727 4.39286 7.81051 4.39286 7.81375 4.39286C7.81698 4.39286 7.82022 4.39286 7.82346 4.39286C7.8267 4.39286 7.82994 4.39286 7.83317 4.39286C7.83641 4.39286 7.83965 4.39286 7.84289 4.39286C7.84612 4.39286 7.84936 4.39286 7.85259 4.39286C7.85583 4.39286 7.85907 4.39286 7.8623 4.39286C7.86554 4.39286 7.86877 4.39286 7.87201 4.39286C7.87524 4.39286 7.87848 4.39286 7.88171 4.39286C7.88495 4.39286 7.88818 4.39286 7.89142 4.39286C7.89465 4.39286 7.89788 4.39286 7.90112 4.39286C7.90435 4.39286 7.90758 4.39286 7.91082 4.39286C7.91405 4.39286 7.91728 4.39286 7.92052 4.39286C7.92375 4.39286 7.92698 4.39286 7.93021 4.39286C7.93344 4.39286 7.93668 4.39286 7.93991 4.39286C7.94314 4.39286 7.94637 4.39286 7.9496 4.39286C7.95283 4.39286 7.95606 4.39286 7.95929 4.39286C7.96252 4.39286 7.96575 4.39286 7.96898 4.39286C7.97221 4.39286 7.97544 4.39286 7.97867 4.39286C7.9819 4.39286 7.98513 4.39286 7.98836 4.39286C7.99159 4.39286 7.99482 4.39286 7.99805 4.39286C8.00127 4.39286 8.0045 4.39286 8.00773 4.39286C8.01096 4.39286 8.01419 4.39286 8.01741 4.39286C8.02064 4.39286 8.02387 4.39286 8.02709 4.39286C8.03032 4.39286 8.03355 4.39286 8.03677 4.39286C8.04 4.39286 8.04323 4.39286 8.04645 4.39286C8.04968 4.39286 8.05291 4.39286 8.05613 4.39286C8.05936 4.39286 8.06258 4.39286 8.06581 4.39286C8.06903 4.39286 8.07226 4.39286 8.07548 4.39286C8.07871 4.39286 8.08193 4.39286 8.08515 4.39286C8.08838 4.39286 8.0916 4.39286 8.09483 4.39286C8.09805 4.39286 8.10127 4.39286 8.1045 4.39286C8.10772 4.39286 8.11094 4.39286 8.11417 4.39286C8.11739 4.39286 8.12061 4.39286 8.12383 4.39286C8.12706 4.39286 8.13028 4.39286 8.1335 4.39286C8.13672 4.39286 8.13994 4.39286 8.14317 4.39286C8.14639 4.39286 8.14961 4.39286 8.15283 4.39286C8.15605 4.39286 8.15927 4.39286 8.16249 4.39286C8.16571 4.39286 8.16893 4.39286 8.17215 4.39286C8.17537 4.39286 8.17859 4.39286 8.18181 4.39286C8.18503 4.39286 8.18825 4.39286 8.19147 4.39286C8.19469 4.39286 8.19791 4.39286 8.20113 4.39286C8.20435 4.39286 8.20757 4.39286 8.21079 4.39286C8.21401 4.39286 8.21723 4.39286 8.22044 4.39286C8.22366 4.39286 8.22688 4.39286 8.2301 4.39286C8.23332 4.39286 8.23653 4.39286 8.23975 4.39286C8.24297 4.39286 8.24619 4.39286 8.2494 4.39286C8.25262 4.39286 8.25584 4.39286 8.25906 4.39286C8.26227 4.39286 8.26549 4.39286 8.26871 4.39286C8.27192 4.39286 8.27514 4.39286 8.27835 4.39286C8.28157 4.39286 8.28479 4.39286 8.288 4.39286C8.29122 4.39286 8.29443 4.39286 8.29765 4.39286C8.30086 4.39286 8.30408 4.39286 8.3073 4.39286C8.31051 4.39286 8.31373 4.39286 8.31694 4.39286C8.32015 4.39286 8.32337 4.39286 8.32658 4.39286C8.3298 4.39286 8.33301 4.39286 8.33623 4.39286C8.33944 4.39286 8.34265 4.39286 8.34587 4.39286C8.34908 4.39286 8.3523 4.39286 8.35551 4.39286C8.35872 4.39286 8.36194 4.39286 8.36515 4.39286C8.36836 4.39286 8.37158 4.39286 8.37479 4.39286C8.378 4.39286 8.38121 4.39286 8.38443 4.39286C8.38764 4.39286 8.39085 4.39286 8.39406 4.39286C8.39728 4.39286 8.40049 4.39286 8.4037 4.39286C8.40691 4.39286 8.41012 4.39286 8.41334 4.39286C8.41655 4.39286 8.41976 4.39286 8.42297 4.39286C8.42618 4.39286 8.42939 4.39286 8.4326 4.39286C8.43581 4.39286 8.43903 4.39286 8.44224 4.39286C8.44545 4.39286 8.44866 4.39286 8.45187 4.39286C8.45508 4.39286 8.45829 4.39286 8.4615 4.39286C8.46471 4.39286 8.46792 4.39286 8.47113 4.39286C8.47434 4.39286 8.47755 4.39286 8.48076 4.39286C8.48397 4.39286 8.48718 4.39286 8.49039 4.39286C8.4936 4.39286 8.49681 4.39286 8.50002 4.39286C8.50323 4.39286 8.50644 4.39286 8.50964 4.39286C8.51285 4.39286 8.51606 4.39286 8.51927 4.39286C8.52248 4.39286 8.52569 4.39286 8.5289 4.39286C8.53211 4.39286 8.53531 4.39286 8.53852 4.39286C8.54173 4.39286 8.54494 4.39286 8.54815 4.39286C8.55136 4.39286 8.55456 4.39286 8.55777 4.39286C8.56098 4.39286 8.56419 4.39286 8.56739 4.39286C8.5706 4.39286 8.57381 4.39286 8.57702 4.39286C8.58022 4.39286 8.58343 4.39286 8.58664 4.39286C8.58985 4.39286 8.59305 4.39286 8.59626 4.39286C8.59947 4.39286 8.60267 4.39286 8.60588 4.39286C8.60909 4.39286 8.6123 4.39286 8.6155 4.39286C8.61871 4.39286 8.62192 4.39286 8.62512 4.39286C8.62833 4.39286 8.63153 4.39286 8.63474 4.39286C8.63795 4.39286 8.64115 4.39286 8.64436 4.39286C8.64757 4.39286 8.65077 4.39286 8.65398 4.39286C8.65718 4.39286 8.66039 4.39286 8.6636 4.39286C8.6668 4.39286 8.67001 4.39286 8.67321 4.39286C8.67642 4.39286 8.67962 4.39286 8.68283 4.39286C8.68603 4.39286 8.68924 4.39286 8.69245 4.39286C8.69565 4.39286 8.69886 4.39286 8.70206 4.39286C8.70527 4.39286 8.70847 4.39286 8.71168 4.39286C8.71488 4.39286 8.71809 4.39286 8.72129 4.39286C8.7245 4.39286 8.7277 4.39286 8.73091 4.39286C8.73411 4.39286 8.73731 4.39286 8.74052 4.39286C8.74372 4.39286 8.74693 4.39286 8.75013 4.39286C8.75334 4.39286 8.75654 4.39286 8.75975 4.39286C8.76295 4.39286 8.76615 4.39286 8.76936 4.39286C8.77256 4.39286 8.77577 4.39286 8.77897 4.39286C8.78218 4.39286 8.78538 4.39286 8.78858 4.39286C8.79179 4.39286 8.79499 4.39286 8.7982 4.39286C8.8014 4.39286 8.8046 4.39286 8.80781 4.39286C8.81101 4.39286 8.81422 4.39286 8.81742 4.39286C8.82062 4.39286 8.82383 4.39286 8.82703 4.39286C8.83023 4.39286 8.83344 4.39286 8.83664 4.39286C8.83984 4.39286 8.84305 4.39286 8.84625 4.39286C8.84946 4.39286 8.85266 4.39286 8.85586 4.39286C8.85907 4.39286 8.86227 4.39286 8.86547 4.39286C8.86868 4.39286 8.87188 4.39286 8.87508 4.39286C8.87829 4.39286 8.88149 4.39286 8.88469 4.39286C8.8879 4.39286 8.8911 4.39286 8.8943 4.39286C8.8975 4.39286 8.90071 4.39286 8.90391 4.39286C8.90711 4.39286 8.91032 4.39286 8.91352 4.39286C8.91672 4.39286 8.91993 4.39286 8.92313 4.39286C8.92633 4.39286 8.92954 4.39286 8.93274 4.39286C8.93594 4.39286 8.93914 4.39286 8.94235 4.39286C8.94555 4.39286 8.94875 4.39286 8.95196 4.39286C8.95516 4.39286 8.95836 4.39286 8.96157 4.39286C8.96477 4.39286 8.96797 4.39286 8.97117 4.39286C8.97438 4.39286 8.97758 4.39286 8.98078 4.39286C8.98399 4.39286 8.98719 4.39286 8.99039 4.39286C8.99359 4.39286 8.9968 4.39286 9 4.39286C9.0032 4.39286 9.00641 4.39286 9.00961 4.39286C9.01281 4.39286 9.01601 4.39286 9.01922 4.39286C9.02242 4.39286 9.02562 4.39286 9.02883 4.39286C9.03203 4.39286 9.03523 4.39286 9.03843 4.39286C9.04164 4.39286 9.04484 4.39286 9.04804 4.39286C9.05125 4.39286 9.05445 4.39286 9.05765 4.39286C9.06086 4.39286 9.06406 4.39286 9.06726 4.39286C9.07046 4.39286 9.07367 4.39286 9.07687 4.39286C9.08007 4.39286 9.08328 4.39286 9.08648 4.39286C9.08968 4.39286 9.09289 4.39286 9.09609 4.39286C9.09929 4.39286 9.1025 4.39286 9.1057 4.39286C9.1089 4.39286 9.1121 4.39286 9.11531 4.39286C9.11851 4.39286 9.12171 4.39286 9.12492 4.39286C9.12812 4.39286 9.13132 4.39286 9.13453 4.39286C9.13773 4.39286 9.14093 4.39286 9.14414 4.39286C9.14734 4.39286 9.15054 4.39286 9.15375 4.39286C9.15695 4.39286 9.16016 4.39286 9.16336 4.39286C9.16656 4.39286 9.16977 4.39286 9.17297 4.39286C9.17617 4.39286 9.17938 4.39286 9.18258 4.39286C9.18578 4.39286 9.18899 4.39286 9.19219 4.39286C9.1954 4.39286 9.1986 4.39286 9.2018 4.39286C9.20501 4.39286 9.20821 4.39286 9.21142 4.39286C9.21462 4.39286 9.21782 4.39286 9.22103 4.39286C9.22423 4.39286 9.22744 4.39286 9.23064 4.39286C9.23385 4.39286 9.23705 4.39286 9.24025 4.39286C9.24346 4.39286 9.24666 4.39286 9.24987 4.39286C9.25307 4.39286 9.25628 4.39286 9.25948 4.39286C9.26269 4.39286 9.26589 4.39286 9.26909 4.39286C9.2723 4.39286 9.2755 4.39286 9.27871 4.39286C9.28191 4.39286 9.28512 4.39286 9.28832 4.39286C9.29153 4.39286 9.29473 4.39286 9.29794 4.39286C9.30114 4.39286 9.30435 4.39286 9.30755 4.39286C9.31076 4.39286 9.31397 4.39286 9.31717 4.39286C9.32038 4.39286 9.32358 4.39286 9.32679 4.39286C9.32999 4.39286 9.3332 4.39286 9.3364 4.39286C9.33961 4.39286 9.34282 4.39286 9.34602 4.39286C9.34923 4.39286 9.35243 4.39286 9.35564 4.39286C9.35885 4.39286 9.36205 4.39286 9.36526 4.39286C9.36847 4.39286 9.37167 4.39286 9.37488 4.39286C9.37808 4.39286 9.38129 4.39286 9.3845 4.39286C9.3877 4.39286 9.39091 4.39286 9.39412 4.39286C9.39733 4.39286 9.40053 4.39286 9.40374 4.39286C9.40695 4.39286 9.41015 4.39286 9.41336 4.39286C9.41657 4.39286 9.41978 4.39286 9.42298 4.39286C9.42619 4.39286 9.4294 4.39286 9.43261 4.39286C9.43581 4.39286 9.43902 4.39286 9.44223 4.39286C9.44544 4.39286 9.44864 4.39286 9.45185 4.39286C9.45506 4.39286 9.45827 4.39286 9.46148 4.39286C9.46469 4.39286 9.46789 4.39286 9.4711 4.39286C9.47431 4.39286 9.47752 4.39286 9.48073 4.39286C9.48394 4.39286 9.48715 4.39286 9.49036 4.39286C9.49356 4.39286 9.49677 4.39286 9.49998 4.39286C9.50319 4.39286 9.5064 4.39286 9.50961 4.39286C9.51282 4.39286 9.51603 4.39286 9.51924 4.39286C9.52245 4.39286 9.52566 4.39286 9.52887 4.39286C9.53208 4.39286 9.53529 4.39286 9.5385 4.39286C9.54171 4.39286 9.54492 4.39286 9.54813 4.39286C9.55134 4.39286 9.55455 4.39286 9.55776 4.39286C9.56097 4.39286 9.56419 4.39286 9.5674 4.39286C9.57061 4.39286 9.57382 4.39286 9.57703 4.39286C9.58024 4.39286 9.58345 4.39286 9.58666 4.39286C9.58988 4.39286 9.59309 4.39286 9.5963 4.39286C9.59951 4.39286 9.60272 4.39286 9.60594 4.39286C9.60915 4.39286 9.61236 4.39286 9.61557 4.39286C9.61879 4.39286 9.622 4.39286 9.62521 4.39286C9.62842 4.39286 9.63164 4.39286 9.63485 4.39286C9.63806 4.39286 9.64128 4.39286 9.64449 4.39286C9.6477 4.39286 9.65092 4.39286 9.65413 4.39286C9.65735 4.39286 9.66056 4.39286 9.66377 4.39286C9.66699 4.39286 9.6702 4.39286 9.67342 4.39286C9.67663 4.39286 9.67985 4.39286 9.68306 4.39286C9.68627 4.39286 9.68949 4.39286 9.6927 4.39286C9.69592 4.39286 9.69914 4.39286 9.70235 4.39286C9.70557 4.39286 9.70878 4.39286 9.712 4.39286C9.71521 4.39286 9.71843 4.39286 9.72165 4.39286C9.72486 4.39286 9.72808 4.39286 9.73129 4.39286C9.73451 4.39286 9.73773 4.39286 9.74094 4.39286C9.74416 4.39286 9.74738 4.39286 9.7506 4.39286C9.75381 4.39286 9.75703 4.39286 9.76025 4.39286C9.76347 4.39286 9.76668 4.39286 9.7699 4.39286C9.77312 4.39286 9.77634 4.39286 9.77956 4.39286C9.78277 4.39286 9.78599 4.39286 9.78921 4.39286C9.79243 4.39286 9.79565 4.39286 9.79887 4.39286C9.80209 4.39286 9.80531 4.39286 9.80853 4.39286C9.81175 4.39286 9.81497 4.39286 9.81819 4.39286C9.82141 4.39286 9.82463 4.39286 9.82785 4.39286C9.83107 4.39286 9.83429 4.39286 9.83751 4.39286C9.84073 4.39286 9.84395 4.39286 9.84717 4.39286C9.85039 4.39286 9.85361 4.39286 9.85683 4.39286C9.86006 4.39286 9.86328 4.39286 9.8665 4.39286C9.86972 4.39286 9.87294 4.39286 9.87617 4.39286C9.87939 4.39286 9.88261 4.39286 9.88583 4.39286C9.88906 4.39286 9.89228 4.39286 9.8955 4.39286C9.89873 4.39286 9.90195 4.39286 9.90517 4.39286C9.9084 4.39286 9.91162 4.39286 9.91485 4.39286C9.91807 4.39286 9.92129 4.39286 9.92452 4.39286C9.92774 4.39286 9.93097 4.39286 9.93419 4.39286C9.93742 4.39286 9.94064 4.39286 9.94387 4.39286C9.94709 4.39286 9.95032 4.39286 9.95355 4.39286C9.95677 4.39286 9.96 4.39286 9.96323 4.39286C9.96645 4.39286 9.96968 4.39286 9.97291 4.39286C9.97613 4.39286 9.97936 4.39286 9.98259 4.39286C9.98581 4.39286 9.98904 4.39286 9.99227 4.39286C9.9955 4.39286 9.99873 4.39286 10.002 4.39286C10.0052 4.39286 10.0084 4.39286 10.0116 4.39286C10.0149 4.39286 10.0181 4.39286 10.0213 4.39286C10.0246 4.39286 10.0278 4.39286 10.031 4.39286C10.0342 4.39286 10.0375 4.39286 10.0407 4.39286C10.0439 4.39286 10.0472 4.39286 10.0504 4.39286C10.0536 4.39286 10.0569 4.39286 10.0601 4.39286C10.0633 4.39286 10.0666 4.39286 10.0698 4.39286C10.073 4.39286 10.0763 4.39286 10.0795 4.39286C10.0827 4.39286 10.0859 4.39286 10.0892 4.39286C10.0924 4.39286 10.0956 4.39286 10.0989 4.39286C10.1021 4.39286 10.1053 4.39286 10.1086 4.39286C10.1118 4.39286 10.1151 4.39286 10.1183 4.39286C10.1215 4.39286 10.1248 4.39286 10.128 4.39286C10.1312 4.39286 10.1345 4.39286 10.1377 4.39286C10.1409 4.39286 10.1442 4.39286 10.1474 4.39286C10.1506 4.39286 10.1539 4.39286 10.1571 4.39286C10.1604 4.39286 10.1636 4.39286 10.1668 4.39286C10.1701 4.39286 10.1733 4.39286 10.1765 4.39286C10.1798 4.39286 10.183 4.39286 10.1863 4.39286C10.1895 4.39286 10.1927 4.39286 10.196 4.39286C10.1992 4.39286 10.2024 4.39286 10.2057 4.39286C10.2089 4.39286 10.2122 4.39286 10.2154 4.39286C10.2186 4.39286 10.2219 4.39286 10.2251 4.39286C10.2284 4.39286 10.2316 4.39286 10.2349 4.39286C10.2381 4.39286 10.2413 4.39286 10.2446 4.39286C10.2478 4.39286 10.2511 4.39286 10.2543 4.39286C10.2576 4.39286 10.2608 4.39286 10.264 4.39286C10.2673 4.39286 10.2705 4.39286 10.2738 4.39286C10.277 4.39286 10.2803 4.39286 10.2835 4.39286C10.2867 4.39286 10.29 4.39286 10.2932 4.39286C10.2965 4.39286 10.2997 4.39286 10.303 4.39286C10.3062 4.39286 10.3095 4.39286 10.3127 4.39286C10.316 4.39286 10.3192 4.39286 10.3225 4.39286C10.3257 4.39286 10.3289 4.39286 10.3322 4.39286C10.3354 4.39286 10.3387 4.39286 10.3419 4.39286C10.3452 4.39286 10.3484 4.39286 10.3517 4.39286C10.3549 4.39286 10.3582 4.39286 10.3614 4.39286C10.3647 4.39286 10.3679 4.39286 10.3712 4.39286C10.3744 4.39286 10.3777 4.39286 10.3809 4.39286C10.3842 4.39286 10.3874 4.39286 10.3907 4.39286C10.3939 4.39286 10.3972 4.39286 10.4004 4.39286C10.4037 4.39286 10.407 4.39286 10.4102 4.39286C10.4135 4.39286 10.4167 4.39286 10.42 4.39286C10.4232 4.39286 10.4265 4.39286 10.4297 4.39286C10.433 4.39286 10.4362 4.39286 10.4395 4.39286C10.4427 4.39286 10.446 4.39286 10.4493 4.39286C10.4525 4.39286 10.4558 4.39286 10.459 4.39286C10.4623 4.39286 10.4655 4.39286 10.4688 4.39286C10.4721 4.39286 10.4753 4.39286 10.4786 4.39286C10.4818 4.39286 10.4851 4.39286 10.4883 4.39286C10.4916 4.39286 10.4949 4.39286 10.4981 4.39286C10.5014 4.39286 10.5046 4.39286 10.5079 4.39286C10.5112 4.39286 10.5144 4.39286 10.5177 4.39286C10.5209 4.39286 10.5242 4.39286 10.5275 4.39286C10.5307 4.39286 10.534 4.39286 10.5373 4.39286C10.5405 4.39286 10.5438 4.39286 10.547 4.39286C10.5503 4.39286 10.5536 4.39286 10.5568 4.39286C10.5601 4.39286 10.5634 4.39286 10.5666 4.39286C10.5699 4.39286 10.5732 4.39286 10.5764 4.39286C10.5797 4.39286 10.583 4.39286 10.5862 4.39286C10.5895 4.39286 10.5928 4.39286 10.596 4.39286C10.5993 4.39286 10.6026 4.39286 10.6058 4.39286C10.6091 4.39286 10.6124 4.39286 10.6156 4.39286C10.6189 4.39286 10.6222 4.39286 10.6254 4.39286C10.6287 4.39286 10.632 4.39286 10.6352 4.39286C10.6385 4.39286 10.6418 4.39286 10.6451 4.39286C10.6483 4.39286 10.6516 4.39286 10.6549 4.39286C10.6581 4.39286 10.6614 4.39286 10.6647 4.39286C10.668 4.39286 10.6712 4.39286 10.6745 4.39286C10.6778 4.39286 10.6811 4.39286 10.6843 4.39286C10.6876 4.39286 10.6909 4.39286 10.6942 4.39286C10.6974 4.39286 10.7007 4.39286 10.704 4.39286C10.7073 4.39286 10.7105 4.39286 10.7138 4.39286C10.7171 4.39286 10.7204 4.39286 10.7236 4.39286C10.7269 4.39286 10.7302 4.39286 10.7335 4.39286C10.7368 4.39286 10.74 4.39286 10.7433 4.39286C10.7466 4.39286 10.7499 4.39286 10.7531 4.39286C10.7564 4.39286 10.7597 4.39286 10.763 4.39286C10.7663 4.39286 10.7696 4.39286 10.7728 4.39286C10.7761 4.39286 10.7794 4.39286 10.7827 4.39286C10.786 4.39286 10.7892 4.39286 10.7925 4.39286C10.7958 4.39286 10.7991 4.39286 10.8024 4.39286C10.8057 4.39286 10.809 4.39286 10.8122 4.39286C10.8155 4.39286 10.8188 4.39286 10.8221 4.39286C10.8254 4.39286 10.8287 4.39286 10.832 4.39286C10.8352 4.39286 10.8385 4.39286 10.8418 4.39286C10.8451 4.39286 10.8484 4.39286 10.8517 4.39286C10.855 4.39286 10.8583 4.39286 10.8616 4.39286C10.8648 4.39286 10.8681 4.39286 10.8714 4.39286C10.8747 4.39286 10.878 4.39286 10.8813 4.39286C10.8846 4.39286 10.8879 4.39286 10.8912 4.39286C10.8945 4.39286 10.8978 4.39286 10.9011 4.39286C10.9043 4.39286 10.9076 4.39286 10.9109 4.39286C10.9142 4.39286 10.9175 4.39286 10.9208 4.39286C10.9241 4.39286 10.9274 4.39286 10.9307 4.39286C10.934 4.39286 10.9373 4.39286 10.9406 4.39286C10.9439 4.39286 10.9472 4.39286 10.9505 4.39286C10.9538 4.39286 10.9571 4.39286 10.9604 4.39286C10.9637 4.39286 10.967 4.39286 10.9703 4.39286C10.9736 4.39286 10.9769 4.39286 10.9802 4.39286C10.9835 4.39286 10.9868 4.39286 10.9901 4.39286C10.9934 4.39286 10.9967 4.39286 11 4.39286C11.0033 4.39286 11.0066 4.39286 11.0099 4.39286C11.0132 4.39286 11.0165 4.39286 11.0198 4.39286C11.0231 4.39286 11.0264 4.39286 11.0297 4.39286C11.033 4.39286 11.0363 4.39286 11.0397 4.39286C11.043 4.39286 11.0463 4.39286 11.0496 4.39286C11.0529 4.39286 11.0562 4.39286 11.0595 4.39286C11.0628 4.39286 11.0661 4.39286 11.0694 4.39286C11.0727 4.39286 11.076 4.39286 11.0794 4.39286C11.0827 4.39286 11.086 4.39286 11.0893 4.39286C11.0926 4.39286 11.0959 4.39286 11.0992 4.39286C11.1025 4.39286 11.1059 4.39286 11.1092 4.39286C11.1125 4.39286 11.1158 4.39286 11.1191 4.39286C11.1224 4.39286 11.1257 4.39286 11.1291 4.39286C11.1324 4.39286 11.1357 4.39286 11.139 4.39286C11.1423 4.39286 11.1456 4.39286 11.149 4.39286C11.1523 4.39286 11.1556 4.39286 11.1589 4.39286C11.1622 4.39286 11.1656 4.39286 11.1689 4.39286C11.1722 4.39286 11.1755 4.39286 11.1788 4.39286C11.1822 4.39286 11.1855 4.39286 11.1888 4.39286C11.1921 4.39286 11.1955 4.39286 11.1988 4.39286C11.2021 4.39286 11.2054 4.39286 11.2087 4.39286C11.2121 4.39286 11.2154 4.39286 11.2187 4.39286C11.222 4.39286 11.2254 4.39286 11.2287 4.39286C11.232 4.39286 11.2354 4.39286 11.2387 4.39286C11.242 4.39286 11.2453 4.39286 11.2487 4.39286C11.252 4.39286 11.2553 4.39286 11.2587 4.39286C11.262 4.39286 11.2653 4.39286 11.2686 4.39286C11.272 4.39286 11.2753 4.39286 11.2786 4.39286C11.282 4.39286 11.2853 4.39286 11.2886 4.39286C11.292 4.39286 11.2953 4.39286 11.2986 4.39286C11.302 4.39286 11.3053 4.39286 11.3086 4.39286C11.312 4.39286 11.3153 4.39286 11.3186 4.39286C11.322 4.39286 11.3253 4.39286 11.3287 4.39286C11.332 4.39286 11.3353 4.39286 11.3387 4.39286C11.342 4.39286 11.3453 4.39286 11.3487 4.39286C11.352 4.39286 11.3554 4.39286 11.3587 4.39286C11.3621 4.39286 11.3654 4.39286 11.3687 4.39286C11.3721 4.39286 11.3754 4.39286 11.3788 4.39286C11.3821 4.39286 11.3855 4.39286 11.3888 4.39286C11.3921 4.39286 11.3955 4.39286 11.3988 4.39286C11.4022 4.39286 11.4055 4.39286 11.4089 4.39286C11.4122 4.39286 11.4156 4.39286 11.4189 4.39286C11.4223 4.39286 11.4256 4.39286 11.429 4.39286C11.4323 4.39286 11.4357 4.39286 11.439 4.39286C11.4424 4.39286 11.4457 4.39286 11.4491 4.39286C11.4524 4.39286 11.4558 4.39286 11.4591 4.39286C11.4625 4.39286 11.4658 4.39286 11.4692 4.39286C11.4725 4.39286 11.4759 4.39286 11.4792 4.39286C11.4826 4.39286 11.4859 4.39286 11.4893 4.39286C11.4927 4.39286 11.496 4.39286 11.4994 4.39286V3.39286C11.496 3.39286 11.4927 3.39286 11.4893 3.39286C11.4859 3.39286 11.4826 3.39286 11.4792 3.39286C11.4759 3.39286 11.4725 3.39286 11.4692 3.39286C11.4658 3.39286 11.4625 3.39286 11.4591 3.39286C11.4558 3.39286 11.4524 3.39286 11.4491 3.39286C11.4457 3.39286 11.4424 3.39286 11.439 3.39286C11.4357 3.39286 11.4323 3.39286 11.429 3.39286C11.4256 3.39286 11.4223 3.39286 11.4189 3.39286C11.4156 3.39286 11.4122 3.39286 11.4089 3.39286C11.4055 3.39286 11.4022 3.39286 11.3988 3.39286C11.3955 3.39286 11.3921 3.39286 11.3888 3.39286C11.3855 3.39286 11.3821 3.39286 11.3788 3.39286C11.3754 3.39286 11.3721 3.39286 11.3687 3.39286C11.3654 3.39286 11.3621 3.39286 11.3587 3.39286C11.3554 3.39286 11.352 3.39286 11.3487 3.39286C11.3453 3.39286 11.342 3.39286 11.3387 3.39286C11.3353 3.39286 11.332 3.39286 11.3287 3.39286C11.3253 3.39286 11.322 3.39286 11.3186 3.39286C11.3153 3.39286 11.312 3.39286 11.3086 3.39286C11.3053 3.39286 11.302 3.39286 11.2986 3.39286C11.2953 3.39286 11.292 3.39286 11.2886 3.39286C11.2853 3.39286 11.282 3.39286 11.2786 3.39286C11.2753 3.39286 11.272 3.39286 11.2686 3.39286C11.2653 3.39286 11.262 3.39286 11.2587 3.39286C11.2553 3.39286 11.252 3.39286 11.2487 3.39286C11.2453 3.39286 11.242 3.39286 11.2387 3.39286C11.2354 3.39286 11.232 3.39286 11.2287 3.39286C11.2254 3.39286 11.222 3.39286 11.2187 3.39286C11.2154 3.39286 11.2121 3.39286 11.2087 3.39286C11.2054 3.39286 11.2021 3.39286 11.1988 3.39286C11.1955 3.39286 11.1921 3.39286 11.1888 3.39286C11.1855 3.39286 11.1822 3.39286 11.1788 3.39286C11.1755 3.39286 11.1722 3.39286 11.1689 3.39286C11.1656 3.39286 11.1622 3.39286 11.1589 3.39286C11.1556 3.39286 11.1523 3.39286 11.149 3.39286C11.1456 3.39286 11.1423 3.39286 11.139 3.39286C11.1357 3.39286 11.1324 3.39286 11.1291 3.39286C11.1257 3.39286 11.1224 3.39286 11.1191 3.39286C11.1158 3.39286 11.1125 3.39286 11.1092 3.39286C11.1059 3.39286 11.1025 3.39286 11.0992 3.39286C11.0959 3.39286 11.0926 3.39286 11.0893 3.39286C11.086 3.39286 11.0827 3.39286 11.0794 3.39286C11.076 3.39286 11.0727 3.39286 11.0694 3.39286C11.0661 3.39286 11.0628 3.39286 11.0595 3.39286C11.0562 3.39286 11.0529 3.39286 11.0496 3.39286C11.0463 3.39286 11.043 3.39286 11.0397 3.39286C11.0363 3.39286 11.033 3.39286 11.0297 3.39286C11.0264 3.39286 11.0231 3.39286 11.0198 3.39286C11.0165 3.39286 11.0132 3.39286 11.0099 3.39286C11.0066 3.39286 11.0033 3.39286 11 3.39286C10.9967 3.39286 10.9934 3.39286 10.9901 3.39286C10.9868 3.39286 10.9835 3.39286 10.9802 3.39286C10.9769 3.39286 10.9736 3.39286 10.9703 3.39286C10.967 3.39286 10.9637 3.39286 10.9604 3.39286C10.9571 3.39286 10.9538 3.39286 10.9505 3.39286C10.9472 3.39286 10.9439 3.39286 10.9406 3.39286C10.9373 3.39286 10.934 3.39286 10.9307 3.39286C10.9274 3.39286 10.9241 3.39286 10.9208 3.39286C10.9175 3.39286 10.9142 3.39286 10.9109 3.39286C10.9076 3.39286 10.9043 3.39286 10.9011 3.39286C10.8978 3.39286 10.8945 3.39286 10.8912 3.39286C10.8879 3.39286 10.8846 3.39286 10.8813 3.39286C10.878 3.39286 10.8747 3.39286 10.8714 3.39286C10.8681 3.39286 10.8648 3.39286 10.8616 3.39286C10.8583 3.39286 10.855 3.39286 10.8517 3.39286C10.8484 3.39286 10.8451 3.39286 10.8418 3.39286C10.8385 3.39286 10.8352 3.39286 10.832 3.39286C10.8287 3.39286 10.8254 3.39286 10.8221 3.39286C10.8188 3.39286 10.8155 3.39286 10.8122 3.39286C10.809 3.39286 10.8057 3.39286 10.8024 3.39286C10.7991 3.39286 10.7958 3.39286 10.7925 3.39286C10.7892 3.39286 10.786 3.39286 10.7827 3.39286C10.7794 3.39286 10.7761 3.39286 10.7728 3.39286C10.7696 3.39286 10.7663 3.39286 10.763 3.39286C10.7597 3.39286 10.7564 3.39286 10.7531 3.39286C10.7499 3.39286 10.7466 3.39286 10.7433 3.39286C10.74 3.39286 10.7368 3.39286 10.7335 3.39286C10.7302 3.39286 10.7269 3.39286 10.7236 3.39286C10.7204 3.39286 10.7171 3.39286 10.7138 3.39286C10.7105 3.39286 10.7073 3.39286 10.704 3.39286C10.7007 3.39286 10.6974 3.39286 10.6942 3.39286C10.6909 3.39286 10.6876 3.39286 10.6843 3.39286C10.6811 3.39286 10.6778 3.39286 10.6745 3.39286C10.6712 3.39286 10.668 3.39286 10.6647 3.39286C10.6614 3.39286 10.6581 3.39286 10.6549 3.39286C10.6516 3.39286 10.6483 3.39286 10.6451 3.39286C10.6418 3.39286 10.6385 3.39286 10.6352 3.39286C10.632 3.39286 10.6287 3.39286 10.6254 3.39286C10.6222 3.39286 10.6189 3.39286 10.6156 3.39286C10.6124 3.39286 10.6091 3.39286 10.6058 3.39286C10.6026 3.39286 10.5993 3.39286 10.596 3.39286C10.5928 3.39286 10.5895 3.39286 10.5862 3.39286C10.583 3.39286 10.5797 3.39286 10.5764 3.39286C10.5732 3.39286 10.5699 3.39286 10.5666 3.39286C10.5634 3.39286 10.5601 3.39286 10.5568 3.39286C10.5536 3.39286 10.5503 3.39286 10.547 3.39286C10.5438 3.39286 10.5405 3.39286 10.5373 3.39286C10.534 3.39286 10.5307 3.39286 10.5275 3.39286C10.5242 3.39286 10.5209 3.39286 10.5177 3.39286C10.5144 3.39286 10.5112 3.39286 10.5079 3.39286C10.5046 3.39286 10.5014 3.39286 10.4981 3.39286C10.4949 3.39286 10.4916 3.39286 10.4883 3.39286C10.4851 3.39286 10.4818 3.39286 10.4786 3.39286C10.4753 3.39286 10.4721 3.39286 10.4688 3.39286C10.4655 3.39286 10.4623 3.39286 10.459 3.39286C10.4558 3.39286 10.4525 3.39286 10.4493 3.39286C10.446 3.39286 10.4427 3.39286 10.4395 3.39286C10.4362 3.39286 10.433 3.39286 10.4297 3.39286C10.4265 3.39286 10.4232 3.39286 10.42 3.39286C10.4167 3.39286 10.4135 3.39286 10.4102 3.39286C10.407 3.39286 10.4037 3.39286 10.4004 3.39286C10.3972 3.39286 10.3939 3.39286 10.3907 3.39286C10.3874 3.39286 10.3842 3.39286 10.3809 3.39286C10.3777 3.39286 10.3744 3.39286 10.3712 3.39286C10.3679 3.39286 10.3647 3.39286 10.3614 3.39286C10.3582 3.39286 10.3549 3.39286 10.3517 3.39286C10.3484 3.39286 10.3452 3.39286 10.3419 3.39286C10.3387 3.39286 10.3354 3.39286 10.3322 3.39286C10.3289 3.39286 10.3257 3.39286 10.3225 3.39286C10.3192 3.39286 10.316 3.39286 10.3127 3.39286C10.3095 3.39286 10.3062 3.39286 10.303 3.39286C10.2997 3.39286 10.2965 3.39286 10.2932 3.39286C10.29 3.39286 10.2867 3.39286 10.2835 3.39286C10.2803 3.39286 10.277 3.39286 10.2738 3.39286C10.2705 3.39286 10.2673 3.39286 10.264 3.39286C10.2608 3.39286 10.2576 3.39286 10.2543 3.39286C10.2511 3.39286 10.2478 3.39286 10.2446 3.39286C10.2413 3.39286 10.2381 3.39286 10.2349 3.39286C10.2316 3.39286 10.2284 3.39286 10.2251 3.39286C10.2219 3.39286 10.2186 3.39286 10.2154 3.39286C10.2122 3.39286 10.2089 3.39286 10.2057 3.39286C10.2024 3.39286 10.1992 3.39286 10.196 3.39286C10.1927 3.39286 10.1895 3.39286 10.1863 3.39286C10.183 3.39286 10.1798 3.39286 10.1765 3.39286C10.1733 3.39286 10.1701 3.39286 10.1668 3.39286C10.1636 3.39286 10.1604 3.39286 10.1571 3.39286C10.1539 3.39286 10.1506 3.39286 10.1474 3.39286C10.1442 3.39286 10.1409 3.39286 10.1377 3.39286C10.1345 3.39286 10.1312 3.39286 10.128 3.39286C10.1248 3.39286 10.1215 3.39286 10.1183 3.39286C10.1151 3.39286 10.1118 3.39286 10.1086 3.39286C10.1053 3.39286 10.1021 3.39286 10.0989 3.39286C10.0956 3.39286 10.0924 3.39286 10.0892 3.39286C10.0859 3.39286 10.0827 3.39286 10.0795 3.39286C10.0763 3.39286 10.073 3.39286 10.0698 3.39286C10.0666 3.39286 10.0633 3.39286 10.0601 3.39286C10.0569 3.39286 10.0536 3.39286 10.0504 3.39286C10.0472 3.39286 10.0439 3.39286 10.0407 3.39286C10.0375 3.39286 10.0342 3.39286 10.031 3.39286C10.0278 3.39286 10.0246 3.39286 10.0213 3.39286C10.0181 3.39286 10.0149 3.39286 10.0116 3.39286C10.0084 3.39286 10.0052 3.39286 10.002 3.39286C9.99873 3.39286 9.9955 3.39286 9.99227 3.39286C9.98904 3.39286 9.98581 3.39286 9.98259 3.39286C9.97936 3.39286 9.97613 3.39286 9.97291 3.39286C9.96968 3.39286 9.96645 3.39286 9.96323 3.39286C9.96 3.39286 9.95677 3.39286 9.95355 3.39286C9.95032 3.39286 9.94709 3.39286 9.94387 3.39286C9.94064 3.39286 9.93742 3.39286 9.93419 3.39286C9.93097 3.39286 9.92774 3.39286 9.92452 3.39286C9.92129 3.39286 9.91807 3.39286 9.91485 3.39286C9.91162 3.39286 9.9084 3.39286 9.90517 3.39286C9.90195 3.39286 9.89873 3.39286 9.8955 3.39286C9.89228 3.39286 9.88906 3.39286 9.88583 3.39286C9.88261 3.39286 9.87939 3.39286 9.87617 3.39286C9.87294 3.39286 9.86972 3.39286 9.8665 3.39286C9.86328 3.39286 9.86006 3.39286 9.85683 3.39286C9.85361 3.39286 9.85039 3.39286 9.84717 3.39286C9.84395 3.39286 9.84073 3.39286 9.83751 3.39286C9.83429 3.39286 9.83107 3.39286 9.82785 3.39286C9.82463 3.39286 9.82141 3.39286 9.81819 3.39286C9.81497 3.39286 9.81175 3.39286 9.80853 3.39286C9.80531 3.39286 9.80209 3.39286 9.79887 3.39286C9.79565 3.39286 9.79243 3.39286 9.78921 3.39286C9.78599 3.39286 9.78277 3.39286 9.77956 3.39286C9.77634 3.39286 9.77312 3.39286 9.7699 3.39286C9.76668 3.39286 9.76347 3.39286 9.76025 3.39286C9.75703 3.39286 9.75381 3.39286 9.7506 3.39286C9.74738 3.39286 9.74416 3.39286 9.74094 3.39286C9.73773 3.39286 9.73451 3.39286 9.73129 3.39286C9.72808 3.39286 9.72486 3.39286 9.72165 3.39286C9.71843 3.39286 9.71521 3.39286 9.712 3.39286C9.70878 3.39286 9.70557 3.39286 9.70235 3.39286C9.69914 3.39286 9.69592 3.39286 9.6927 3.39286C9.68949 3.39286 9.68627 3.39286 9.68306 3.39286C9.67985 3.39286 9.67663 3.39286 9.67342 3.39286C9.6702 3.39286 9.66699 3.39286 9.66377 3.39286C9.66056 3.39286 9.65735 3.39286 9.65413 3.39286C9.65092 3.39286 9.6477 3.39286 9.64449 3.39286C9.64128 3.39286 9.63806 3.39286 9.63485 3.39286C9.63164 3.39286 9.62842 3.39286 9.62521 3.39286C9.622 3.39286 9.61879 3.39286 9.61557 3.39286C9.61236 3.39286 9.60915 3.39286 9.60594 3.39286C9.60272 3.39286 9.59951 3.39286 9.5963 3.39286C9.59309 3.39286 9.58988 3.39286 9.58666 3.39286C9.58345 3.39286 9.58024 3.39286 9.57703 3.39286C9.57382 3.39286 9.57061 3.39286 9.5674 3.39286C9.56419 3.39286 9.56097 3.39286 9.55776 3.39286C9.55455 3.39286 9.55134 3.39286 9.54813 3.39286C9.54492 3.39286 9.54171 3.39286 9.5385 3.39286C9.53529 3.39286 9.53208 3.39286 9.52887 3.39286C9.52566 3.39286 9.52245 3.39286 9.51924 3.39286C9.51603 3.39286 9.51282 3.39286 9.50961 3.39286C9.5064 3.39286 9.50319 3.39286 9.49998 3.39286C9.49677 3.39286 9.49356 3.39286 9.49036 3.39286C9.48715 3.39286 9.48394 3.39286 9.48073 3.39286C9.47752 3.39286 9.47431 3.39286 9.4711 3.39286C9.46789 3.39286 9.46469 3.39286 9.46148 3.39286C9.45827 3.39286 9.45506 3.39286 9.45185 3.39286C9.44864 3.39286 9.44544 3.39286 9.44223 3.39286C9.43902 3.39286 9.43581 3.39286 9.43261 3.39286C9.4294 3.39286 9.42619 3.39286 9.42298 3.39286C9.41978 3.39286 9.41657 3.39286 9.41336 3.39286C9.41015 3.39286 9.40695 3.39286 9.40374 3.39286C9.40053 3.39286 9.39733 3.39286 9.39412 3.39286C9.39091 3.39286 9.3877 3.39286 9.3845 3.39286C9.38129 3.39286 9.37808 3.39286 9.37488 3.39286C9.37167 3.39286 9.36847 3.39286 9.36526 3.39286C9.36205 3.39286 9.35885 3.39286 9.35564 3.39286C9.35243 3.39286 9.34923 3.39286 9.34602 3.39286C9.34282 3.39286 9.33961 3.39286 9.3364 3.39286C9.3332 3.39286 9.32999 3.39286 9.32679 3.39286C9.32358 3.39286 9.32038 3.39286 9.31717 3.39286C9.31397 3.39286 9.31076 3.39286 9.30755 3.39286C9.30435 3.39286 9.30114 3.39286 9.29794 3.39286C9.29473 3.39286 9.29153 3.39286 9.28832 3.39286C9.28512 3.39286 9.28191 3.39286 9.27871 3.39286C9.2755 3.39286 9.2723 3.39286 9.26909 3.39286C9.26589 3.39286 9.26269 3.39286 9.25948 3.39286C9.25628 3.39286 9.25307 3.39286 9.24987 3.39286C9.24666 3.39286 9.24346 3.39286 9.24025 3.39286C9.23705 3.39286 9.23385 3.39286 9.23064 3.39286C9.22744 3.39286 9.22423 3.39286 9.22103 3.39286C9.21782 3.39286 9.21462 3.39286 9.21142 3.39286C9.20821 3.39286 9.20501 3.39286 9.2018 3.39286C9.1986 3.39286 9.1954 3.39286 9.19219 3.39286C9.18899 3.39286 9.18578 3.39286 9.18258 3.39286C9.17938 3.39286 9.17617 3.39286 9.17297 3.39286C9.16977 3.39286 9.16656 3.39286 9.16336 3.39286C9.16016 3.39286 9.15695 3.39286 9.15375 3.39286C9.15054 3.39286 9.14734 3.39286 9.14414 3.39286C9.14093 3.39286 9.13773 3.39286 9.13453 3.39286C9.13132 3.39286 9.12812 3.39286 9.12492 3.39286C9.12171 3.39286 9.11851 3.39286 9.11531 3.39286C9.1121 3.39286 9.1089 3.39286 9.1057 3.39286C9.1025 3.39286 9.09929 3.39286 9.09609 3.39286C9.09289 3.39286 9.08968 3.39286 9.08648 3.39286C9.08328 3.39286 9.08007 3.39286 9.07687 3.39286C9.07367 3.39286 9.07046 3.39286 9.06726 3.39286C9.06406 3.39286 9.06086 3.39286 9.05765 3.39286C9.05445 3.39286 9.05125 3.39286 9.04804 3.39286C9.04484 3.39286 9.04164 3.39286 9.03843 3.39286C9.03523 3.39286 9.03203 3.39286 9.02883 3.39286C9.02562 3.39286 9.02242 3.39286 9.01922 3.39286C9.01601 3.39286 9.01281 3.39286 9.00961 3.39286C9.00641 3.39286 9.0032 3.39286 9 3.39286C8.9968 3.39286 8.99359 3.39286 8.99039 3.39286C8.98719 3.39286 8.98399 3.39286 8.98078 3.39286C8.97758 3.39286 8.97438 3.39286 8.97117 3.39286C8.96797 3.39286 8.96477 3.39286 8.96157 3.39286C8.95836 3.39286 8.95516 3.39286 8.95196 3.39286C8.94875 3.39286 8.94555 3.39286 8.94235 3.39286C8.93914 3.39286 8.93594 3.39286 8.93274 3.39286C8.92954 3.39286 8.92633 3.39286 8.92313 3.39286C8.91993 3.39286 8.91672 3.39286 8.91352 3.39286C8.91032 3.39286 8.90711 3.39286 8.90391 3.39286C8.90071 3.39286 8.8975 3.39286 8.8943 3.39286C8.8911 3.39286 8.8879 3.39286 8.88469 3.39286C8.88149 3.39286 8.87829 3.39286 8.87508 3.39286C8.87188 3.39286 8.86868 3.39286 8.86547 3.39286C8.86227 3.39286 8.85907 3.39286 8.85586 3.39286C8.85266 3.39286 8.84946 3.39286 8.84625 3.39286C8.84305 3.39286 8.83984 3.39286 8.83664 3.39286C8.83344 3.39286 8.83023 3.39286 8.82703 3.39286C8.82383 3.39286 8.82062 3.39286 8.81742 3.39286C8.81422 3.39286 8.81101 3.39286 8.80781 3.39286C8.8046 3.39286 8.8014 3.39286 8.7982 3.39286C8.79499 3.39286 8.79179 3.39286 8.78858 3.39286C8.78538 3.39286 8.78218 3.39286 8.77897 3.39286C8.77577 3.39286 8.77256 3.39286 8.76936 3.39286C8.76615 3.39286 8.76295 3.39286 8.75975 3.39286C8.75654 3.39286 8.75334 3.39286 8.75013 3.39286C8.74693 3.39286 8.74372 3.39286 8.74052 3.39286C8.73731 3.39286 8.73411 3.39286 8.73091 3.39286C8.7277 3.39286 8.7245 3.39286 8.72129 3.39286C8.71809 3.39286 8.71488 3.39286 8.71168 3.39286C8.70847 3.39286 8.70527 3.39286 8.70206 3.39286C8.69886 3.39286 8.69565 3.39286 8.69245 3.39286C8.68924 3.39286 8.68603 3.39286 8.68283 3.39286C8.67962 3.39286 8.67642 3.39286 8.67321 3.39286C8.67001 3.39286 8.6668 3.39286 8.6636 3.39286C8.66039 3.39286 8.65718 3.39286 8.65398 3.39286C8.65077 3.39286 8.64757 3.39286 8.64436 3.39286C8.64115 3.39286 8.63795 3.39286 8.63474 3.39286C8.63153 3.39286 8.62833 3.39286 8.62512 3.39286C8.62192 3.39286 8.61871 3.39286 8.6155 3.39286C8.6123 3.39286 8.60909 3.39286 8.60588 3.39286C8.60267 3.39286 8.59947 3.39286 8.59626 3.39286C8.59305 3.39286 8.58985 3.39286 8.58664 3.39286C8.58343 3.39286 8.58022 3.39286 8.57702 3.39286C8.57381 3.39286 8.5706 3.39286 8.56739 3.39286C8.56419 3.39286 8.56098 3.39286 8.55777 3.39286C8.55456 3.39286 8.55136 3.39286 8.54815 3.39286C8.54494 3.39286 8.54173 3.39286 8.53852 3.39286C8.53531 3.39286 8.53211 3.39286 8.5289 3.39286C8.52569 3.39286 8.52248 3.39286 8.51927 3.39286C8.51606 3.39286 8.51285 3.39286 8.50964 3.39286C8.50644 3.39286 8.50323 3.39286 8.50002 3.39286C8.49681 3.39286 8.4936 3.39286 8.49039 3.39286C8.48718 3.39286 8.48397 3.39286 8.48076 3.39286C8.47755 3.39286 8.47434 3.39286 8.47113 3.39286C8.46792 3.39286 8.46471 3.39286 8.4615 3.39286C8.45829 3.39286 8.45508 3.39286 8.45187 3.39286C8.44866 3.39286 8.44545 3.39286 8.44224 3.39286C8.43903 3.39286 8.43581 3.39286 8.4326 3.39286C8.42939 3.39286 8.42618 3.39286 8.42297 3.39286C8.41976 3.39286 8.41655 3.39286 8.41334 3.39286C8.41012 3.39286 8.40691 3.39286 8.4037 3.39286C8.40049 3.39286 8.39728 3.39286 8.39406 3.39286C8.39085 3.39286 8.38764 3.39286 8.38443 3.39286C8.38121 3.39286 8.378 3.39286 8.37479 3.39286C8.37158 3.39286 8.36836 3.39286 8.36515 3.39286C8.36194 3.39286 8.35872 3.39286 8.35551 3.39286C8.3523 3.39286 8.34908 3.39286 8.34587 3.39286C8.34265 3.39286 8.33944 3.39286 8.33623 3.39286C8.33301 3.39286 8.3298 3.39286 8.32658 3.39286C8.32337 3.39286 8.32015 3.39286 8.31694 3.39286C8.31373 3.39286 8.31051 3.39286 8.3073 3.39286C8.30408 3.39286 8.30086 3.39286 8.29765 3.39286C8.29443 3.39286 8.29122 3.39286 8.288 3.39286C8.28479 3.39286 8.28157 3.39286 8.27835 3.39286C8.27514 3.39286 8.27192 3.39286 8.26871 3.39286C8.26549 3.39286 8.26227 3.39286 8.25906 3.39286C8.25584 3.39286 8.25262 3.39286 8.2494 3.39286C8.24619 3.39286 8.24297 3.39286 8.23975 3.39286C8.23653 3.39286 8.23332 3.39286 8.2301 3.39286C8.22688 3.39286 8.22366 3.39286 8.22044 3.39286C8.21723 3.39286 8.21401 3.39286 8.21079 3.39286C8.20757 3.39286 8.20435 3.39286 8.20113 3.39286C8.19791 3.39286 8.19469 3.39286 8.19147 3.39286C8.18825 3.39286 8.18503 3.39286 8.18181 3.39286C8.17859 3.39286 8.17537 3.39286 8.17215 3.39286C8.16893 3.39286 8.16571 3.39286 8.16249 3.39286C8.15927 3.39286 8.15605 3.39286 8.15283 3.39286C8.14961 3.39286 8.14639 3.39286 8.14317 3.39286C8.13994 3.39286 8.13672 3.39286 8.1335 3.39286C8.13028 3.39286 8.12706 3.39286 8.12383 3.39286C8.12061 3.39286 8.11739 3.39286 8.11417 3.39286C8.11094 3.39286 8.10772 3.39286 8.1045 3.39286C8.10127 3.39286 8.09805 3.39286 8.09483 3.39286C8.0916 3.39286 8.08838 3.39286 8.08515 3.39286C8.08193 3.39286 8.07871 3.39286 8.07548 3.39286C8.07226 3.39286 8.06903 3.39286 8.06581 3.39286C8.06258 3.39286 8.05936 3.39286 8.05613 3.39286C8.05291 3.39286 8.04968 3.39286 8.04645 3.39286C8.04323 3.39286 8.04 3.39286 8.03677 3.39286C8.03355 3.39286 8.03032 3.39286 8.02709 3.39286C8.02387 3.39286 8.02064 3.39286 8.01741 3.39286C8.01419 3.39286 8.01096 3.39286 8.00773 3.39286C8.0045 3.39286 8.00127 3.39286 7.99805 3.39286C7.99482 3.39286 7.99159 3.39286 7.98836 3.39286C7.98513 3.39286 7.9819 3.39286 7.97867 3.39286C7.97544 3.39286 7.97221 3.39286 7.96898 3.39286C7.96575 3.39286 7.96252 3.39286 7.95929 3.39286C7.95606 3.39286 7.95283 3.39286 7.9496 3.39286C7.94637 3.39286 7.94314 3.39286 7.93991 3.39286C7.93668 3.39286 7.93344 3.39286 7.93021 3.39286C7.92698 3.39286 7.92375 3.39286 7.92052 3.39286C7.91728 3.39286 7.91405 3.39286 7.91082 3.39286C7.90758 3.39286 7.90435 3.39286 7.90112 3.39286C7.89788 3.39286 7.89465 3.39286 7.89142 3.39286C7.88818 3.39286 7.88495 3.39286 7.88171 3.39286C7.87848 3.39286 7.87524 3.39286 7.87201 3.39286C7.86877 3.39286 7.86554 3.39286 7.8623 3.39286C7.85907 3.39286 7.85583 3.39286 7.85259 3.39286C7.84936 3.39286 7.84612 3.39286 7.84289 3.39286C7.83965 3.39286 7.83641 3.39286 7.83317 3.39286C7.82994 3.39286 7.8267 3.39286 7.82346 3.39286C7.82022 3.39286 7.81698 3.39286 7.81375 3.39286C7.81051 3.39286 7.80727 3.39286 7.80403 3.39286C7.80079 3.39286 7.79755 3.39286 7.79431 3.39286C7.79107 3.39286 7.78783 3.39286 7.78459 3.39286C7.78135 3.39286 7.77811 3.39286 7.77487 3.39286C7.77163 3.39286 7.76839 3.39286 7.76515 3.39286C7.7619 3.39286 7.75866 3.39286 7.75542 3.39286C7.75218 3.39286 7.74894 3.39286 7.74569 3.39286C7.74245 3.39286 7.73921 3.39286 7.73596 3.39286C7.73272 3.39286 7.72948 3.39286 7.72623 3.39286C7.72299 3.39286 7.71974 3.39286 7.7165 3.39286C7.71326 3.39286 7.71001 3.39286 7.70676 3.39286C7.70352 3.39286 7.70027 3.39286 7.69703 3.39286C7.69378 3.39286 7.69054 3.39286 7.68729 3.39286C7.68404 3.39286 7.6808 3.39286 7.67755 3.39286C7.6743 3.39286 7.67105 3.39286 7.66781 3.39286C7.66456 3.39286 7.66131 3.39286 7.65806 3.39286C7.65481 3.39286 7.65157 3.39286 7.64832 3.39286C7.64507 3.39286 7.64182 3.39286 7.63857 3.39286C7.63532 3.39286 7.63207 3.39286 7.62882 3.39286C7.62557 3.39286 7.62232 3.39286 7.61907 3.39286C7.61581 3.39286 7.61256 3.39286 7.60931 3.39286C7.60606 3.39286 7.60281 3.39286 7.59955 3.39286C7.5963 3.39286 7.59305 3.39286 7.5898 3.39286C7.58654 3.39286 7.58329 3.39286 7.58004 3.39286C7.57678 3.39286 7.57353 3.39286 7.57027 3.39286C7.56702 3.39286 7.56376 3.39286 7.56051 3.39286C7.55725 3.39286 7.554 3.39286 7.55074 3.39286C7.54749 3.39286 7.54423 3.39286 7.54097 3.39286C7.53772 3.39286 7.53446 3.39286 7.5312 3.39286C7.52794 3.39286 7.52469 3.39286 7.52143 3.39286C7.51817 3.39286 7.51491 3.39286 7.51165 3.39286C7.50839 3.39286 7.50514 3.39286 7.50188 3.39286C7.49862 3.39286 7.49536 3.39286 7.4921 3.39286C7.48884 3.39286 7.48558 3.39286 7.48231 3.39286C7.47905 3.39286 7.47579 3.39286 7.47253 3.39286C7.46927 3.39286 7.46601 3.39286 7.46274 3.39286C7.45948 3.39286 7.45622 3.39286 7.45296 3.39286C7.44969 3.39286 7.44643 3.39286 7.44316 3.39286C7.4399 3.39286 7.43664 3.39286 7.43337 3.39286C7.43011 3.39286 7.42684 3.39286 7.42358 3.39286C7.42031 3.39286 7.41704 3.39286 7.41378 3.39286C7.41051 3.39286 7.40725 3.39286 7.40398 3.39286C7.40071 3.39286 7.39744 3.39286 7.39418 3.39286C7.39091 3.39286 7.38764 3.39286 7.38437 3.39286C7.3811 3.39286 7.37783 3.39286 7.37456 3.39286C7.37129 3.39286 7.36802 3.39286 7.36475 3.39286C7.36148 3.39286 7.35821 3.39286 7.35494 3.39286C7.35167 3.39286 7.3484 3.39286 7.34513 3.39286C7.34186 3.39286 7.33858 3.39286 7.33531 3.39286C7.33204 3.39286 7.32877 3.39286 7.32549 3.39286C7.32222 3.39286 7.31895 3.39286 7.31567 3.39286C7.3124 3.39286 7.30912 3.39286 7.30585 3.39286C7.30257 3.39286 7.2993 3.39286 7.29602 3.39286C7.29274 3.39286 7.28947 3.39286 7.28619 3.39286C7.28291 3.39286 7.27964 3.39286 7.27636 3.39286C7.27308 3.39286 7.2698 3.39286 7.26653 3.39286C7.26325 3.39286 7.25997 3.39286 7.25669 3.39286C7.25341 3.39286 7.25013 3.39286 7.24685 3.39286C7.24357 3.39286 7.24029 3.39286 7.23701 3.39286C7.23373 3.39286 7.23045 3.39286 7.22716 3.39286C7.22388 3.39286 7.2206 3.39286 7.21732 3.39286C7.21404 3.39286 7.21075 3.39286 7.20747 3.39286C7.20418 3.39286 7.2009 3.39286 7.19762 3.39286C7.19433 3.39286 7.19105 3.39286 7.18776 3.39286C7.18448 3.39286 7.18119 3.39286 7.1779 3.39286C7.17462 3.39286 7.17133 3.39286 7.16804 3.39286C7.16476 3.39286 7.16147 3.39286 7.15818 3.39286C7.15489 3.39286 7.15161 3.39286 7.14832 3.39286C7.14503 3.39286 7.14174 3.39286 7.13845 3.39286C7.13516 3.39286 7.13187 3.39286 7.12858 3.39286C7.12529 3.39286 7.122 3.39286 7.1187 3.39286C7.11541 3.39286 7.11212 3.39286 7.10883 3.39286C7.10554 3.39286 7.10224 3.39286 7.09895 3.39286C7.09566 3.39286 7.09236 3.39286 7.08907 3.39286C7.08577 3.39286 7.08248 3.39286 7.07918 3.39286C7.07589 3.39286 7.07259 3.39286 7.0693 3.39286C7.066 3.39286 7.0627 3.39286 7.05941 3.39286C7.05611 3.39286 7.05281 3.39286 7.04951 3.39286C7.04621 3.39286 7.04292 3.39286 7.03962 3.39286C7.03632 3.39286 7.03302 3.39286 7.02972 3.39286C7.02642 3.39286 7.02312 3.39286 7.01982 3.39286C7.01651 3.39286 7.01321 3.39286 7.00991 3.39286C7.00661 3.39286 7.00331 3.39286 7 3.39286C6.9967 3.39286 6.9934 3.39286 6.99009 3.39286C6.98679 3.39286 6.98349 3.39286 6.98018 3.39286C6.97688 3.39286 6.97357 3.39286 6.97026 3.39286C6.96696 3.39286 6.96365 3.39286 6.96035 3.39286C6.95704 3.39286 6.95373 3.39286 6.95042 3.39286C6.94712 3.39286 6.94381 3.39286 6.9405 3.39286C6.93719 3.39286 6.93388 3.39286 6.93057 3.39286C6.92726 3.39286 6.92395 3.39286 6.92064 3.39286C6.91733 3.39286 6.91402 3.39286 6.91071 3.39286C6.90739 3.39286 6.90408 3.39286 6.90077 3.39286C6.89746 3.39286 6.89414 3.39286 6.89083 3.39286C6.88751 3.39286 6.8842 3.39286 6.88088 3.39286C6.87757 3.39286 6.87425 3.39286 6.87094 3.39286C6.86762 3.39286 6.86431 3.39286 6.86099 3.39286C6.85767 3.39286 6.85435 3.39286 6.85104 3.39286C6.84772 3.39286 6.8444 3.39286 6.84108 3.39286C6.83776 3.39286 6.83444 3.39286 6.83112 3.39286C6.8278 3.39286 6.82448 3.39286 6.82116 3.39286C6.81784 3.39286 6.81452 3.39286 6.81119 3.39286C6.80787 3.39286 6.80455 3.39286 6.80123 3.39286C6.7979 3.39286 6.79458 3.39286 6.79126 3.39286C6.78793 3.39286 6.78461 3.39286 6.78128 3.39286C6.77795 3.39286 6.77463 3.39286 6.7713 3.39286C6.76798 3.39286 6.76465 3.39286 6.76132 3.39286C6.75799 3.39286 6.75467 3.39286 6.75134 3.39286C6.74801 3.39286 6.74468 3.39286 6.74135 3.39286C6.73802 3.39286 6.73469 3.39286 6.73136 3.39286C6.72803 3.39286 6.7247 3.39286 6.72136 3.39286C6.71803 3.39286 6.7147 3.39286 6.71137 3.39286C6.70803 3.39286 6.7047 3.39286 6.70137 3.39286C6.69803 3.39286 6.6947 3.39286 6.69136 3.39286C6.68803 3.39286 6.68469 3.39286 6.68135 3.39286C6.67802 3.39286 6.67468 3.39286 6.67134 3.39286C6.66801 3.39286 6.66467 3.39286 6.66133 3.39286C6.65799 3.39286 6.65465 3.39286 6.65131 3.39286C6.64797 3.39286 6.64463 3.39286 6.64129 3.39286C6.63795 3.39286 6.63461 3.39286 6.63126 3.39286C6.62792 3.39286 6.62458 3.39286 6.62124 3.39286C6.61789 3.39286 6.61455 3.39286 6.61121 3.39286C6.60786 3.39286 6.60452 3.39286 6.60117 3.39286C6.59782 3.39286 6.59448 3.39286 6.59113 3.39286C6.58779 3.39286 6.58444 3.39286 6.58109 3.39286C6.57774 3.39286 6.57439 3.39286 6.57104 3.39286C6.5677 3.39286 6.56435 3.39286 6.561 3.39286C6.55765 3.39286 6.55429 3.39286 6.55094 3.39286C6.54759 3.39286 6.54424 3.39286 6.54089 3.39286C6.53753 3.39286 6.53418 3.39286 6.53083 3.39286C6.52747 3.39286 6.52412 3.39286 6.52076 3.39286C6.51741 3.39286 6.51405 3.39286 6.5107 3.39286C6.50734 3.39286 6.50398 3.39286 6.50063 3.39286V4.39286ZM15.5 6.64286H2.5V7.64286H15.5V6.64286ZM12.2143 2.5V5.28571H13.2143V2.5H12.2143ZM4.78571 2.5V5.28571H5.78571V2.5H4.78571ZM6.5 15C5.54306 15 4.87565 14.9989 4.37208 14.9312C3.8829 14.8654 3.62385 14.7451 3.43934 14.5606L2.73223 15.2677C3.13351 15.669 3.63876 15.8416 4.23883 15.9223C4.82452 16.001 5.57133 16 6.5 16V15ZM2 11.5C2 12.4286 1.99894 13.1754 2.07768 13.7611C2.15836 14.3612 2.33096 14.8664 2.73223 15.2677L3.43934 14.5606C3.25483 14.3761 3.13453 14.1171 3.06876 13.6279C3.00106 13.1243 3 12.4569 3 11.5H2ZM15 11.5C15 12.4569 14.9989 13.1243 14.9312 13.6279C14.8655 14.1171 14.7452 14.3761 14.5607 14.5606L15.2678 15.2677C15.669 14.8664 15.8416 14.3612 15.9223 13.7611C16.0011 13.1754 16 12.4286 16 11.5H15ZM11.5 16C12.4287 16 13.1755 16.001 13.7612 15.9223C14.3612 15.8416 14.8665 15.669 15.2678 15.2677L14.5607 14.5606C14.3762 14.7451 14.1171 14.8654 13.6279 14.9312C13.1244 14.9989 12.4569 15 11.5 15V16ZM16 7.89286C16 6.96418 16.0011 6.21738 15.9223 5.63169C15.8416 5.03162 15.669 4.52637 15.2678 4.12509L14.5607 4.8322C14.7452 5.01671 14.8655 5.27575 14.9312 5.76494C14.9989 6.2685 15 6.93591 15 7.89286H16ZM11.4994 4.39286C12.4565 4.39286 13.1241 4.39392 13.6278 4.46162C14.1171 4.5274 14.3762 4.6477 14.5607 4.8322L15.2678 4.12509C14.8665 3.7238 14.3612 3.55121 13.761 3.47054C13.1752 3.3918 12.4283 3.39286 11.4994 3.39286V4.39286ZM3 7.89286C3 6.93592 3.00106 6.26851 3.06876 5.76494C3.13453 5.27575 3.25483 5.01671 3.43934 4.8322L2.73223 4.12509C2.33096 4.52637 2.15836 5.03162 2.07768 5.63169C1.99894 6.21738 2 6.96419 2 7.89286H3ZM6.50063 3.39286C5.57174 3.39286 4.82479 3.3918 4.239 3.47054C3.63885 3.55121 3.13353 3.7238 2.73223 4.12509L3.43934 4.8322C3.62383 4.6477 3.88291 4.5274 4.37222 4.46162C4.8759 4.39392 5.54348 4.39286 6.50063 4.39286V3.39286Z" fill="#757575"/>
<path d="M6.125 10C6.125 10.3107 5.87316 10.5625 5.5625 10.5625C5.25184 10.5625 5 10.3107 5 10C5 9.68934 5.25184 9.4375 5.5625 9.4375C5.87316 9.4375 6.125 9.68934 6.125 10Z" fill="#757575"/>
<path d="M6.125 10C6.125 10.3107 5.87316 10.5625 5.5625 10.5625C5.25184 10.5625 5 10.3107 5 10C5 9.68934 5.25184 9.4375 5.5625 9.4375C5.87316 9.4375 6.125 9.68934 6.125 10Z" fill="#757575"/>
<path d="M6.125 12.5C6.125 12.8107 5.87316 13.0625 5.5625 13.0625C5.25184 13.0625 5 12.8107 5 12.5C5 12.1893 5.25184 11.9375 5.5625 11.9375C5.87316 11.9375 6.125 12.1893 6.125 12.5Z" fill="#757575"/>
<path d="M6.125 12.5C6.125 12.8107 5.87316 13.0625 5.5625 13.0625C5.25184 13.0625 5 12.8107 5 12.5C5 12.1893 5.25184 11.9375 5.5625 11.9375C5.87316 11.9375 6.125 12.1893 6.125 12.5Z" fill="#757575"/>
<path d="M9.5625 12.5C9.5625 12.8107 9.31066 13.0625 9 13.0625C8.68934 13.0625 8.4375 12.8107 8.4375 12.5C8.4375 12.1893 8.68934 11.9375 9 11.9375C9.31066 11.9375 9.5625 12.1893 9.5625 12.5Z" fill="#757575"/>
<path d="M9.5625 12.5C9.5625 12.8107 9.31066 13.0625 9 13.0625C8.68934 13.0625 8.4375 12.8107 8.4375 12.5C8.4375 12.1893 8.68934 11.9375 9 11.9375C9.31066 11.9375 9.5625 12.1893 9.5625 12.5Z" fill="#757575"/>
<path d="M13 12.5C13 12.8107 12.7482 13.0625 12.4375 13.0625C12.1268 13.0625 11.875 12.8107 11.875 12.5C11.875 12.1893 12.1268 11.9375 12.4375 11.9375C12.7482 11.9375 13 12.1893 13 12.5Z" fill="#757575"/>
<path d="M13 12.5C13 12.8107 12.7482 13.0625 12.4375 13.0625C12.1268 13.0625 11.875 12.8107 11.875 12.5C11.875 12.1893 12.1268 11.9375 12.4375 11.9375C12.7482 11.9375 13 12.1893 13 12.5Z" fill="#757575"/>
<path d="M13 10C13 10.3107 12.7482 10.5625 12.4375 10.5625C12.1268 10.5625 11.875 10.3107 11.875 10C11.875 9.68934 12.1268 9.4375 12.4375 9.4375C12.7482 9.4375 13 9.68934 13 10Z" fill="#757575"/>
<path d="M13 10C13 10.3107 12.7482 10.5625 12.4375 10.5625C12.1268 10.5625 11.875 10.3107 11.875 10C11.875 9.68934 12.1268 9.4375 12.4375 9.4375C12.7482 9.4375 13 9.68934 13 10Z" fill="#757575"/>
<path d="M9.5625 10C9.5625 10.3107 9.31066 10.5625 9 10.5625C8.68934 10.5625 8.4375 10.3107 8.4375 10C8.4375 9.68934 8.68934 9.4375 9 9.4375C9.31066 9.4375 9.5625 9.68934 9.5625 10Z" fill="#757575"/>
<path d="M9.5625 10C9.5625 10.3107 9.31066 10.5625 9 10.5625C8.68934 10.5625 8.4375 10.3107 8.4375 10C8.4375 9.68934 8.68934 9.4375 9 9.4375C9.31066 9.4375 9.5625 9.68934 9.5625 10Z" fill="#757575"/>
</svg>
