<svg width="16" height="16" viewBox="0 0 16 16" fill="none" xmlns="http://www.w3.org/2000/svg">
<path d="M8 15C11.866 15 15 11.866 15 8C15 4.13401 11.866 1 8 1C4.13401 1 1 4.13401 1 8C1 11.866 4.13401 15 8 15Z" stroke="#757575" stroke-linecap="round"/>
<path d="M8.77777 11.8891C8.77777 12.0954 8.69582 12.2932 8.54996 12.4391C8.4041 12.5849 8.20627 12.6669 7.99999 12.6669C7.79371 12.6669 7.59588 12.5849 7.45002 12.4391C7.30416 12.2932 7.22221 12.0954 7.22221 11.8891C7.22221 11.6828 7.30416 11.485 7.45002 11.3391C7.59588 11.1933 7.79371 11.1113 7.99999 11.1113C8.20627 11.1113 8.4041 11.1933 8.54996 11.3391C8.69582 11.485 8.77777 11.6828 8.77777 11.8891Z" fill="#757575"/>
<path d="M7.99999 9.55547V8.7777C7.99999 7.99992 10.3333 7.61103 9.94443 5.66659C9.55554 3.72214 6.44443 3.72214 6.05554 5.66659" stroke="#757575" stroke-linecap="round"/>
</svg>
