<svg width="17" height="15" viewBox="0 0 17 15" fill="none" xmlns="http://www.w3.org/2000/svg">
<path d="M2.6551 9.4929L2.32365 9.86725L2.32365 9.86725L2.6551 9.4929ZM5.33333 10.9168L5.19848 11.3982L5.33333 10.9168ZM1.8125 12.5777L1.57559 13.018C1.59919 13.0307 1.62377 13.0415 1.6491 13.0502L1.8125 12.5777ZM13.5 5.96185C13.5 7.45407 12.8495 8.65667 11.786 9.49783C10.7133 10.3463 9.2035 10.8372 7.5 10.8372V11.8372C9.38635 11.8372 11.1265 11.2944 12.4064 10.2822C13.6954 9.26263 14.5 7.77755 14.5 5.96185H13.5ZM1.5 5.96185C1.5 3.51594 4.04503 1.49999 7.5 1.49999V0.499994C3.77527 0.499994 0.5 2.71827 0.5 5.96185H1.5ZM7.5 1.49999C9.22691 1.49999 10.7412 1.89905 11.8086 2.64949C12.857 3.38658 13.5 4.4771 13.5 5.96185H14.5C14.5 4.13871 13.6879 2.74829 12.3838 1.83143C11.0986 0.92792 9.36294 0.499994 7.5 0.499994V1.49999ZM2.98655 9.11854C2.05442 8.29325 1.5 7.12502 1.5 5.96185H0.5C0.5 7.43716 1.19727 8.86997 2.32365 9.86725L2.98655 9.11854ZM7.5 10.8372C6.82522 10.8372 6.1736 10.6329 5.46819 10.4353L5.19848 11.3982C5.84844 11.5803 6.65536 11.8372 7.5 11.8372V10.8372ZM5.46819 10.4353C5.20775 10.3623 4.97996 10.4634 4.85682 10.5313C4.71968 10.607 4.58583 10.7135 4.46763 10.8149C4.3467 10.9186 4.21444 11.0416 4.0857 11.1597C3.95336 11.2811 3.81779 11.4039 3.6758 11.522C3.07659 12.0205 2.52666 12.2956 1.9759 12.1051L1.6491 13.0502C2.75344 13.4321 3.69993 12.8027 4.31535 12.2908C4.47703 12.1562 4.6275 12.0197 4.76168 11.8967C4.89946 11.7703 5.01418 11.6636 5.11878 11.5738C5.22609 11.4818 5.29631 11.431 5.33985 11.4069C5.3974 11.3752 5.32692 11.4342 5.19848 11.3982L5.46819 10.4353ZM2.04941 12.1374C2.25345 12.2471 2.23559 12.4432 2.23647 12.4C2.23689 12.3794 2.2461 12.314 2.28521 12.1885C2.36104 11.9454 2.50031 11.6246 2.6587 11.266C2.80975 10.9239 2.97875 10.5461 3.08446 10.2346C3.13663 10.0809 3.18437 9.91256 3.2001 9.75572C3.21191 9.63789 3.22826 9.33255 2.98655 9.11854L2.32365 9.86725C2.17058 9.73172 2.21328 9.57422 2.20509 9.65595C2.2008 9.69868 2.18217 9.78163 2.1375 9.91326C2.04952 10.1725 1.90298 10.5018 1.74392 10.862C1.59219 11.2056 1.42676 11.5823 1.33056 11.8908C1.28366 12.0412 1.24003 12.2151 1.23668 12.3797C1.23379 12.5217 1.26125 12.8489 1.57559 13.018L2.04941 12.1374Z" fill="#757575"/>
<path d="M9 9.77864C9 11.6311 10.567 12.7888 12.5 12.7888C12.9091 12.7888 13.3018 12.6597 13.6667 12.5534C13.951 12.4706 14.6713 13.804 15.5625 13.4835C15.8001 13.3506 14.9179 11.9318 15.1088 11.756C15.663 11.2457 16 10.5174 16 9.77864C16 8.18558 14.433 7 12.5 7C10.567 7 9 7.92621 9 9.77864Z" fill="white"/>
<path d="M15.1088 11.756L15.4475 12.1238L15.4475 12.1238L15.1088 11.756ZM13.6667 12.5534L13.8065 13.0334L13.6667 12.5534ZM15.5625 13.4835L15.8067 13.9198C15.7827 13.9333 15.7576 13.9447 15.7317 13.954L15.5625 13.4835ZM9.5 9.77864C9.5 11.268 10.7474 12.2888 12.5 12.2888V13.2888C10.3866 13.2888 8.5 11.9941 8.5 9.77864H9.5ZM15.5 9.77864C15.5 8.56905 14.2781 7.5 12.5 7.5V6.5C14.5879 6.5 16.5 7.80211 16.5 9.77864H15.5ZM12.5 7.5C11.6052 7.5 10.8438 7.71546 10.3202 8.09828C9.81453 8.46803 9.5 9.0133 9.5 9.77864H8.5C8.5 8.69154 8.96897 7.84749 9.73001 7.29104C10.4732 6.74764 11.4619 6.5 12.5 6.5V7.5ZM14.7701 11.3882C15.2285 10.9661 15.5 10.3685 15.5 9.77864H16.5C16.5 10.6664 16.0975 11.5253 15.4475 12.1238L14.7701 11.3882ZM12.5 12.2888C12.8208 12.2888 13.133 12.188 13.5268 12.0733L13.8065 13.0334C13.4705 13.1313 12.9973 13.2888 12.5 13.2888V12.2888ZM13.5268 12.0733C13.7644 12.0041 13.9614 12.1028 14.042 12.149C14.1378 12.204 14.2245 12.277 14.2904 12.3358C14.3592 12.3971 14.4343 12.4698 14.5016 12.534C14.5725 12.6016 14.6421 12.6671 14.7141 12.7295C15.0369 13.0087 15.2351 13.0699 15.3933 13.013L15.7317 13.954C14.9987 14.2176 14.3912 13.7723 14.0598 13.4857C13.9684 13.4065 13.884 13.3269 13.8113 13.2576C13.7351 13.1849 13.6773 13.1289 13.6246 13.0819C13.5994 13.0594 13.5796 13.0429 13.5643 13.0309C13.5483 13.0185 13.5422 13.0152 13.5444 13.0164C13.5452 13.0169 13.5673 13.0299 13.6068 13.0395C13.6487 13.0497 13.7209 13.0584 13.8065 13.0334L13.5268 12.0733ZM15.3183 13.0472C15.2112 13.1071 15.1528 13.1977 15.1262 13.2689C15.1028 13.3314 15.1033 13.3782 15.1035 13.3881C15.1038 13.4055 15.1055 13.3908 15.0861 13.3258C15.0493 13.2032 14.9795 13.0352 14.8929 12.8312C14.8132 12.6434 14.7177 12.4218 14.6572 12.2365C14.6276 12.1457 14.5962 12.0341 14.5855 11.9233C14.5788 11.8531 14.5562 11.5852 14.7701 11.3882L15.4475 12.1238C15.536 12.0423 15.5654 11.9498 15.575 11.9026C15.5843 11.8568 15.5809 11.8273 15.5809 11.8273C15.5806 11.8245 15.5812 11.8315 15.586 11.8512C15.5906 11.8701 15.5976 11.8949 15.6079 11.9263C15.6517 12.0606 15.7261 12.2349 15.8134 12.4404C15.8938 12.6297 15.9881 12.8524 16.0439 13.0386C16.0708 13.1281 16.1009 13.2474 16.1033 13.3685C16.1051 13.462 16.0923 13.76 15.8067 13.9198L15.3183 13.0472Z" fill="#757575"/>
</svg>
