<svg width="800" height="800" viewBox="0 0 800 800" fill="none" xmlns="http://www.w3.org/2000/svg">
<g clip-path="url(#clip0_41_17)">
<mask id="mask0_41_17" style="mask-type:luminance" maskUnits="userSpaceOnUse" x="0" y="0" width="800" height="800">
<path d="M800 0H0V800H800V0Z" fill="white"/>
</mask>
<g mask="url(#mask0_41_17)">
<g filter="url(#filter0_d_41_17)">
<path d="M477.883 411.553L469.217 397.317C463.607 400.733 460.527 407.123 461.35 413.64C462.17 420.153 466.74 425.58 473.023 427.497L477.883 411.553ZM322.113 411.553L326.974 427.497C333.256 425.58 337.827 420.153 338.65 413.64C339.47 407.123 336.39 400.733 330.78 397.317L322.113 411.553ZM533.333 283.333C533.333 331.6 507.697 373.893 469.217 397.317L486.55 425.79C534.55 396.57 566.667 343.71 566.667 283.333H533.333ZM400 150C473.637 150 533.333 209.695 533.333 283.333H566.667C566.667 191.286 492.047 116.667 400 116.667V150ZM266.665 283.333C266.665 209.695 326.361 150 400 150V116.667C307.951 116.667 233.332 191.286 233.332 283.333H266.665ZM330.78 397.317C292.301 373.893 266.665 331.6 266.665 283.333H233.332C233.332 343.71 265.447 396.57 313.447 425.79L330.78 397.317ZM317.253 395.61C212.028 427.697 132.785 519.347 118.848 631.34L151.926 635.457C164.213 536.727 234.127 455.807 326.974 427.497L317.253 395.61ZM118.848 631.34C115.164 660.94 139.685 683.333 166.665 683.333V650C156.827 650 151.063 642.397 151.926 635.457L118.848 631.34ZM166.665 683.333H633.333V650H166.665V683.333ZM633.333 683.333C660.313 683.333 684.833 660.94 681.15 631.34L648.07 635.457C648.933 642.397 643.17 650 633.333 650V683.333ZM681.15 631.34C667.213 519.347 587.97 427.697 482.743 395.61L473.023 427.497C565.87 455.807 635.783 536.727 648.07 635.457L681.15 631.34Z" fill="#555555"/>
</g>
</g>
</g>
<defs>
<filter id="filter0_d_41_17" x="85.1463" y="116.667" width="629.705" height="633.333" filterUnits="userSpaceOnUse" color-interpolation-filters="sRGB">
<feFlood flood-opacity="0" result="BackgroundImageFix"/>
<feColorMatrix in="SourceAlpha" type="matrix" values="0 0 0 0 0 0 0 0 0 0 0 0 0 0 0 0 0 0 127 0" result="hardAlpha"/>
<feOffset dy="33.3333"/>
<feGaussianBlur stdDeviation="16.6667"/>
<feColorMatrix type="matrix" values="0 0 0 0 0 0 0 0 0 0 0 0 0 0 0 0 0 0 0.1 0"/>
<feBlend mode="normal" in2="BackgroundImageFix" result="effect1_dropShadow_41_17"/>
<feBlend mode="normal" in="SourceGraphic" in2="effect1_dropShadow_41_17" result="shape"/>
</filter>
<clipPath id="clip0_41_17">
<rect width="800" height="800" fill="white"/>
</clipPath>
</defs>
</svg>
