<svg width="15" height="15" viewBox="0 0 15 15" fill="none" xmlns="http://www.w3.org/2000/svg">
<path d="M1 3C1 2.05719 1 1.58579 1.29289 1.29289C1.58579 1 2.05719 1 3 1H4C4.94281 1 5.41421 1 5.70711 1.29289C6 1.58579 6 2.05719 6 3V12C6 12.9428 6 13.4142 5.70711 13.7071C5.41421 14 4.94281 14 4 14H3C2.05719 14 1.58579 14 1.29289 13.7071C1 13.4142 1 12.9428 1 12V3Z" fill="#757575" stroke="#757575" stroke-linecap="round" stroke-linejoin="round"/>
<path d="M9 3C9 2.05719 9 1.58579 9.29289 1.29289C9.58579 1 10.0572 1 11 1H12C12.9428 1 13.4142 1 13.7071 1.29289C14 1.58579 14 2.05719 14 3V12C14 12.9428 14 13.4142 13.7071 13.7071C13.4142 14 12.9428 14 12 14H11C10.0572 14 9.58579 14 9.29289 13.7071C9 13.4142 9 12.9428 9 12V3Z" stroke="#757575" stroke-linecap="round" stroke-linejoin="round"/>
</svg>
