<svg width="15" height="14" viewBox="0 0 15 14" fill="none" xmlns="http://www.w3.org/2000/svg">
<path d="M11.5 9.49999C11.5 9.03406 11.5 8.80109 11.5761 8.61732C11.6776 8.37229 11.8723 8.17761 12.1173 8.07612C12.3011 8 12.5341 8 13 8V8C13.4659 8 13.6989 8 13.8827 8.07612C14.1277 8.17761 14.3224 8.37229 14.4239 8.61732C14.5 8.80109 14.5 9.03406 14.5 9.49999V12.0001C14.5 12.466 14.5 12.699 14.4239 12.8828C14.3224 13.1278 14.1277 13.3225 13.8827 13.424C13.6989 13.5001 13.4659 13.5001 13 13.5001V13.5001C12.5341 13.5001 12.3011 13.5001 12.1173 13.424C11.8723 13.3225 11.6776 13.1278 11.5761 12.8828C11.5 12.699 11.5 12.466 11.5 12.0001V9.49999Z" stroke="#757575" stroke-linejoin="round"/>
<path d="M6.5 2.0001C6.5 1.53415 6.5 1.30117 6.57612 1.1174C6.67761 0.872379 6.87228 0.677709 7.1173 0.576215C7.30108 0.500092 7.53406 0.500092 8.00001 0.500092V0.500092C8.46596 0.500092 8.69894 0.500092 8.88271 0.576215C9.12773 0.677709 9.3224 0.872378 9.42389 1.1174C9.50002 1.30117 9.50002 1.53415 9.50002 2.0001V11.9999C9.50002 12.4659 9.50002 12.6988 9.42389 12.8826C9.3224 13.1276 9.12773 13.3223 8.88271 13.4238C8.69893 13.4999 8.46596 13.4999 8.00001 13.4999V13.4999C7.53406 13.4999 7.30108 13.4999 7.11731 13.4238C6.87229 13.3223 6.67762 13.1276 6.57612 12.8826C6.5 12.6988 6.5 12.4659 6.5 11.9999L6.5 2.0001Z" stroke="#757575" stroke-linejoin="round"/>
<path d="M1.33335 6.58333C1.33335 6.039 1.33335 5.76683 1.43648 5.55771C1.53384 5.36028 1.69363 5.20049 1.89106 5.10313C2.10018 5 2.37235 5 2.91668 5V5C3.46102 5 3.73319 5 3.94231 5.10313C4.13974 5.20049 4.29953 5.36028 4.39689 5.55771C4.50002 5.76683 4.50002 6.039 4.50002 6.58333V11.9168C4.50002 12.4611 4.50002 12.7333 4.39689 12.9424C4.29953 13.1398 4.13974 13.2996 3.94231 13.397C3.73319 13.5001 3.46102 13.5001 2.91668 13.5001V13.5001C2.37235 13.5001 2.10018 13.5001 1.89106 13.397C1.69363 13.2996 1.53384 13.1398 1.43648 12.9424C1.33335 12.7333 1.33335 12.4611 1.33335 11.9168V6.58333Z" stroke="#757575" stroke-linejoin="round"/>
</svg>
