<svg width="12" height="14" viewBox="0 0 12 14" fill="none" xmlns="http://www.w3.org/2000/svg">
<path d="M11.5 8C11.5 11.0376 9.03757 13.5 6 13.5C2.96243 13.5 0.5 11.0376 0.5 8C0.5 4.96243 2.96243 2.5 6 2.5C9.03757 2.5 11.5 4.96243 11.5 8Z" stroke="#757575"/>
<path d="M9.51106 6.08206C9.14359 5.41078 8.58922 4.85641 7.91795 4.48894C7.2929 4.14678 6.98038 3.9757 6.49019 4.26619C6.00001 4.55668 6.00001 5.03779 6.00001 6C6.00001 6.94281 6.00001 7.41421 6.2929 7.70711C6.58579 8 7.0572 8 8.00001 8C8.96222 8 9.44333 8 9.73382 7.50981C10.0243 7.01963 9.85322 6.7071 9.51106 6.08206Z" fill="#757575"/>
<path d="M4.28947 0.766923C5 0.512148 7 0.512148 7.71053 0.766923" stroke="#757575" stroke-linecap="round"/>
<path d="M0.5 3.5C0.590953 3.30992 1.28357 2.65136 1.51763 2.53201" stroke="#757575" stroke-linecap="round"/>
</svg>
