<svg width="21" height="18" viewBox="0 0 21 18" fill="none" xmlns="http://www.w3.org/2000/svg">
<path d="M5 1.00003H16C17.8856 1.00003 18.8284 1.00003 19.4142 1.58582C20 2.17161 20 3.11442 20 5.00004V9.6667C20 11.5523 20 12.4951 19.4142 13.0809C18.8284 13.6667 17.8796 13.6667 15.9819 13.6667C15.1002 13.6667 14.6594 13.6667 14.2713 13.8394C13.8831 14.012 13.5897 14.3375 13.003 14.9884L11.9855 16.117C11.2917 16.8865 10.9449 17.2713 10.5 17.2713C10.0551 17.2713 9.70827 16.8865 9.01453 16.117L7.99705 14.9884L7.99704 14.9883C7.41025 14.3375 7.11686 14.012 6.72874 13.8394C6.34062 13.6667 5.89977 13.6667 5.01807 13.6667C3.12041 13.6667 2.17157 13.6667 1.58579 13.0809C1 12.4951 1 11.5523 1 9.6667V5.00004C1 3.11442 1 2.17161 1.58579 1.58582C2.17157 1.00003 3.11438 1.00003 5 1.00003Z" stroke="#757575" stroke-linecap="round"/>
</svg>
