<svg width="4" height="16" viewBox="0 0 4 16" fill="none" xmlns="http://www.w3.org/2000/svg">
<path d="M2.86622 2C2.86622 2.55228 2.41851 3 1.86622 3C1.31394 3 0.866224 2.55228 0.866224 2C0.866224 1.44772 1.31394 1 1.86622 1C2.41851 1 2.86622 1.44772 2.86622 2Z" fill="#757575"/>
<path d="M3 8.00003C3 8.55231 2.55228 9.00003 2 9.00003C1.44771 9.00003 1 8.55231 1 8.00003C1 7.44774 1.44771 7.00003 2 7.00003C2.55228 7.00003 3 7.44774 3 8.00003Z" fill="#757575"/>
<path d="M3.00001 14C3.00001 14.5523 2.55229 15 2.00001 15C1.44772 15 1.00001 14.5523 1.00001 14C1.00001 13.4477 1.44772 13 2.00001 13C2.55229 13 3.00001 13.4477 3.00001 14Z" fill="#757575"/>
<path d="M2.86622 2C2.86622 2.55228 2.41851 3 1.86622 3C1.31394 3 0.866224 2.55228 0.866224 2C0.866224 1.44772 1.31394 1 1.86622 1C2.41851 1 2.86622 1.44772 2.86622 2Z" stroke="#757575"/>
<path d="M3 8.00003C3 8.55231 2.55228 9.00003 2 9.00003C1.44771 9.00003 1 8.55231 1 8.00003C1 7.44774 1.44771 7.00003 2 7.00003C2.55228 7.00003 3 7.44774 3 8.00003Z" stroke="#757575"/>
<path d="M3.00001 14C3.00001 14.5523 2.55229 15 2.00001 15C1.44772 15 1.00001 14.5523 1.00001 14C1.00001 13.4477 1.44772 13 2.00001 13C2.55229 13 3.00001 13.4477 3.00001 14Z" stroke="#757575"/>
</svg>
