<svg width="15" height="19" viewBox="0 0 15 19" fill="none" xmlns="http://www.w3.org/2000/svg">
<path d="M14.4891 18V16.6309C14.4891 15.7083 14.4891 15.2476 14.3875 14.8708C14.2622 14.4043 14.025 13.9794 13.6986 13.6367C13.3722 13.294 12.9675 13.045 12.5233 12.9134C12.1645 12.8067 11.7256 12.8067 10.847 12.8067H4.64205C3.76346 12.8067 3.32462 12.8067 2.96581 12.9134C2.52156 13.045 2.11688 13.294 1.79049 13.6367C1.4641 13.9794 1.22692 14.4043 1.10162 14.8708C1 15.2476 1 15.7083 1 16.6309V18M11.9711 4.83737C11.9711 6.95718 10.2805 8.67568 8.19418 8.67568C6.10787 8.67568 4.41724 6.95718 4.41724 4.83737C4.41724 2.71756 6.10787 1 8.19418 1C10.2805 1 11.9711 2.71851 11.9711 4.83737Z" stroke="#757575" stroke-linecap="round" stroke-linejoin="round"/>
</svg>
