<svg width="18" height="18" viewBox="0 0 18 18" fill="none" xmlns="http://www.w3.org/2000/svg">
<g clip-path="url(#clip0_631_28327)">
<path d="M5.5 5H15.5M5.5 9H15.5M5.5 13H15.5" stroke="#757575" stroke-linecap="round"/>
<g clip-path="url(#clip1_631_28327)">
<path d="M2 9.5V9.5C2.0845 9.5845 2.12675 9.62675 2.16714 9.65388C2.35743 9.78168 2.61026 9.76371 2.78056 9.61028C2.81671 9.57772 2.85256 9.52992 2.92426 9.43431L4 8" stroke="#757575" stroke-width="0.5" stroke-linecap="round"/>
</g>
<g clip-path="url(#clip2_631_28327)">
<path d="M2 13.5V13.5C2.0845 13.5845 2.12675 13.6268 2.16714 13.6539C2.35743 13.7817 2.61026 13.7637 2.78056 13.6103C2.81671 13.5777 2.85256 13.5299 2.92426 13.4343L4 12" stroke="#757575" stroke-width="0.5" stroke-linecap="round"/>
</g>
<g clip-path="url(#clip3_631_28327)">
<path d="M2 5.5V5.5C2.0845 5.5845 2.12675 5.62675 2.16714 5.65388C2.35743 5.78168 2.61026 5.76371 2.78056 5.61028C2.81671 5.57772 2.85256 5.52992 2.92426 5.43431L4 4" stroke="#757575" stroke-width="0.5" stroke-linecap="round"/>
</g>
</g>
<defs>
<clipPath id="clip0_631_28327">
<rect width="18" height="18" fill="white"/>
</clipPath>
<clipPath id="clip1_631_28327">
<rect width="4" height="3" fill="white" transform="translate(1 7)"/>
</clipPath>
<clipPath id="clip2_631_28327">
<rect width="4" height="3" fill="white" transform="translate(1 11)"/>
</clipPath>
<clipPath id="clip3_631_28327">
<rect width="4" height="3" fill="white" transform="translate(1 3)"/>
</clipPath>
</defs>
</svg>
